<svg width="669" height="372" viewBox="0 0 669 372" fill="none" xmlns="http://www.w3.org/2000/svg">
<path fill-rule="evenodd" clip-rule="evenodd" d="M196.359 156.408C196.359 150.364 201.255 145.465 207.297 145.465H453.078C459.119 145.465 464.015 150.364 464.015 156.408V355.726C464.015 361.771 459.119 366.67 453.078 366.67H207.297C201.255 366.67 196.359 361.771 196.359 355.726V156.408Z" stroke="white" stroke-width="10" stroke-miterlimit="8"/>
<path fill-rule="evenodd" clip-rule="evenodd" d="M222.691 145.61C222.691 68.1351 270.82 5.32959 330.187 5.32959C389.295 5.32959 437.311 67.6012 437.681 144.732L403.109 145.014C402.883 86.646 370.049 39.5962 329.777 39.9254C289.663 40.2531 257.263 87.4732 257.263 145.61H222.691Z" stroke="white" stroke-width="10" stroke-miterlimit="8"/>
<path fill-rule="evenodd" clip-rule="evenodd" d="M330.043 224.725C356.325 151.256 458.83 224.725 330.043 319.186C201.255 224.725 303.76 151.256 330.043 224.725Z" fill="white" stroke="white" stroke-width="10" stroke-miterlimit="8"/>
<path fill-rule="evenodd" clip-rule="evenodd" d="M143.552 88.2454V86.5157C143.552 80.7853 138.91 76.1405 133.184 76.1405H109.02C109.497 74.2316 110.918 69.4161 113.765 66.1773C117.388 62.0607 121.829 50.5328 119.361 40.4874C116.893 30.4411 110.64 26.3253 107.02 29.289C103.4 32.253 103.562 47.0752 95.6657 54.4853C87.7662 61.8962 79.045 76.8817 75.2602 79.0231H57.3229V138.308H72.3058C72.3058 138.308 75.9257 142.425 88.4318 142.425C88.7009 142.425 87.7431 142.369 126.497 142.369C135.805 142.369 138.945 130.51 133.722 126.964C138.838 123.956 140.924 116.726 135.913 112.993C145.143 107.27 142.953 98.2092 138.575 95.9957C141.248 94.7293 143.552 91.3313 143.552 88.2454Z" stroke="white" stroke-width="10" stroke-miterlimit="8"/>
<path fill-rule="evenodd" clip-rule="evenodd" d="M5 140.847C5 144.117 7.6505 146.768 10.9174 146.768H34.963C38.2328 146.768 40.8804 144.117 40.8804 140.847V76.8307C40.8804 73.5607 38.2328 70.9094 34.963 70.9094H10.9174C7.64761 70.9094 5 73.5607 5 76.8307V140.847Z" fill="white" stroke="white" stroke-width="10" stroke-miterlimit="8"/>
<path fill-rule="evenodd" clip-rule="evenodd" d="M509.734 105.702C509.734 94.5622 518.759 85.531 529.893 85.531H535.391H573.876H643.513C654.647 85.531 663.672 94.5622 663.672 105.702V156.13V186.386C663.672 197.527 654.647 206.557 643.513 206.557H573.876L513.993 234.952L535.391 206.557H529.893C518.759 206.557 509.734 197.526 509.734 186.386V156.13V105.702Z" stroke="white" stroke-width="10" stroke-miterlimit="8"/>
<path fill-rule="evenodd" clip-rule="evenodd" d="M619.129 140C621.269 140 623.118 140.759 624.668 142.275C626.225 143.792 627 145.676 627 147.927C627 150.177 626.225 152.085 624.668 153.651C623.118 155.217 621.269 156 619.129 156C616.996 156 615.174 155.217 613.663 153.651C612.159 152.085 611.404 150.177 611.404 147.927C611.404 145.676 612.159 143.792 613.663 142.275C615.174 140.759 616.996 140 619.129 140ZM587.354 140C589.494 140 591.343 140.759 592.893 142.275C594.45 143.792 595.225 145.676 595.225 147.927C595.225 150.177 594.45 152.085 592.893 153.651C591.343 155.217 589.494 156 587.354 156C585.221 156 583.399 155.217 581.888 153.651C580.385 152.085 579.629 150.177 579.629 147.927C579.629 145.676 580.385 143.792 581.888 142.275C583.399 140.759 585.221 140 587.354 140ZM555.725 140C557.865 140 559.714 140.759 561.264 142.275C562.821 143.792 563.596 145.676 563.596 147.927C563.596 150.177 562.821 152.085 561.264 153.651C559.714 155.217 557.865 156 555.725 156C553.592 156 551.77 155.217 550.259 153.651C548.755 152.085 548 150.177 548 147.927C548 145.676 548.755 143.792 550.259 142.275C551.77 140.759 553.592 140 555.725 140Z" fill="white"/>
<path fill-rule="evenodd" clip-rule="evenodd" d="M33.1672 316.3C35.511 270.764 74.3023 235.754 119.81 238.102C125.192 238.38 130.533 239.185 135.759 240.502L148.207 218.929L150.062 260.755L109.161 286.602L121.433 265.333C90.9549 262.087 63.6222 284.179 60.3785 314.675C60.2743 315.677 60.1933 316.685 60.1412 317.689L33.1672 316.3Z" stroke="white" stroke-width="10" stroke-miterlimit="8"/>
</svg>
