<svg width="401" height="408" viewBox="0 0 401 408" fill="none" xmlns="http://www.w3.org/2000/svg">
<g clip-path="url(#clip0_541_147)">
<path fill-rule="evenodd" clip-rule="evenodd" d="M200.568 384.069C200.563 384.069 200.558 384.069 200.554 384.069C198.743 384.043 196.907 383.984 195.099 383.902C194.536 383.874 194.103 383.398 194.129 382.837C194.155 382.276 194.64 381.833 195.192 381.868C196.982 381.95 198.795 382.006 200.584 382.032C201.144 382.042 201.594 382.504 201.584 383.065C201.577 383.623 201.123 384.069 200.568 384.069ZM205.995 384.066C205.44 384.066 204.988 383.621 204.978 383.065C204.969 382.502 205.416 382.039 205.979 382.03C207.768 382.002 209.581 381.943 211.37 381.859C211.914 381.833 212.408 382.265 212.434 382.825C212.46 383.388 212.029 383.865 211.467 383.893C209.658 383.977 207.822 384.036 206.011 384.064C206.007 384.066 206 384.066 205.995 384.066ZM189.732 383.564C189.704 383.564 189.679 383.564 189.65 383.562C187.833 383.419 186.004 383.248 184.216 383.051C183.659 382.99 183.256 382.487 183.317 381.927C183.38 381.368 183.879 380.967 184.439 381.026C186.205 381.221 188.011 381.392 189.81 381.533C190.367 381.575 190.786 382.065 190.744 382.626C190.702 383.158 190.257 383.564 189.732 383.564ZM216.833 383.55C216.308 383.55 215.863 383.144 215.821 382.612C215.776 382.051 216.196 381.561 216.755 381.518C218.538 381.378 220.344 381.206 222.124 381.007C222.684 380.951 223.185 381.35 223.246 381.908C223.307 382.466 222.906 382.971 222.346 383.032C220.545 383.231 218.718 383.405 216.915 383.548C216.887 383.55 216.858 383.55 216.833 383.55ZM178.946 382.38C178.899 382.38 178.85 382.377 178.803 382.37C177.011 382.114 175.199 381.828 173.411 381.516C172.859 381.42 172.489 380.892 172.585 380.338C172.681 379.785 173.21 379.412 173.76 379.51C175.526 379.818 177.318 380.101 179.089 380.352C179.644 380.432 180.031 380.948 179.951 381.504C179.878 382.014 179.445 382.38 178.946 382.38ZM227.617 382.354C227.118 382.354 226.684 381.988 226.612 381.481C226.532 380.925 226.919 380.409 227.474 380.329C229.242 380.076 231.036 379.789 232.8 379.48C233.353 379.379 233.88 379.752 233.976 380.306C234.074 380.859 233.704 381.387 233.151 381.486C231.364 381.798 229.554 382.089 227.762 382.344C227.713 382.351 227.663 382.354 227.617 382.354ZM168.256 380.512C168.188 380.512 168.12 380.505 168.05 380.491C166.272 380.12 164.48 379.717 162.723 379.294C162.178 379.161 161.843 378.612 161.974 378.065C162.105 377.518 162.653 377.185 163.199 377.314C164.935 377.734 166.705 378.131 168.462 378.497C169.013 378.612 169.366 379.149 169.251 379.7C169.153 380.181 168.729 380.512 168.256 380.512ZM238.302 380.474C237.831 380.474 237.407 380.144 237.309 379.663C237.194 379.114 237.546 378.574 238.096 378.459C239.846 378.095 241.616 377.694 243.357 377.272C243.903 377.143 244.453 377.474 244.584 378.023C244.718 378.569 244.383 379.118 243.837 379.252C242.076 379.679 240.284 380.083 238.513 380.453C238.44 380.467 238.372 380.474 238.302 380.474ZM157.709 377.964C157.62 377.964 157.528 377.952 157.439 377.926C155.68 377.443 153.919 376.925 152.2 376.392C151.663 376.226 151.363 375.655 151.53 375.118C151.696 374.581 152.268 374.281 152.802 374.447C154.5 374.975 156.24 375.484 157.978 375.965C158.519 376.113 158.835 376.674 158.688 377.216C158.564 377.666 158.156 377.964 157.709 377.964ZM248.849 377.917C248.402 377.917 247.995 377.621 247.87 377.169C247.72 376.627 248.039 376.066 248.578 375.918C250.306 375.437 252.049 374.926 253.754 374.396C254.291 374.229 254.86 374.527 255.026 375.064C255.192 375.601 254.895 376.172 254.359 376.338C252.632 376.878 250.869 377.394 249.121 377.88C249.03 377.905 248.938 377.917 248.849 377.917ZM147.328 374.74C147.218 374.74 147.105 374.722 146.995 374.684C145.283 374.091 143.55 373.459 141.849 372.809C141.324 372.61 141.062 372.021 141.263 371.496C141.463 370.972 142.05 370.707 142.575 370.907C144.255 371.55 145.967 372.174 147.66 372.76C148.192 372.943 148.473 373.523 148.288 374.055C148.143 374.475 147.749 374.74 147.328 374.74ZM259.212 374.689C258.79 374.689 258.397 374.424 258.249 374.004C258.066 373.471 258.347 372.892 258.879 372.709C260.568 372.122 262.271 371.5 263.946 370.857C264.47 370.658 265.058 370.921 265.257 371.446C265.459 371.97 265.196 372.558 264.672 372.76C262.978 373.41 261.252 374.039 259.544 374.632C259.434 374.67 259.322 374.689 259.212 374.689ZM137.162 370.853C137.031 370.853 136.897 370.827 136.769 370.773C135.094 370.071 133.41 369.332 131.756 368.575C131.245 368.342 131.021 367.737 131.255 367.226C131.489 366.714 132.091 366.487 132.602 366.723C134.234 367.47 135.9 368.199 137.553 368.894C138.073 369.112 138.315 369.708 138.099 370.226C137.935 370.618 137.558 370.853 137.162 370.853ZM269.328 370.811C268.93 370.811 268.553 370.576 268.389 370.186C268.173 369.668 268.417 369.07 268.935 368.851C270.572 368.164 272.228 367.437 273.858 366.688C274.371 366.456 274.973 366.681 275.205 367.19C275.439 367.702 275.214 368.307 274.706 368.542C273.055 369.297 271.378 370.034 269.719 370.731C269.593 370.785 269.459 370.811 269.328 370.811ZM127.268 366.325C127.118 366.325 126.964 366.289 126.819 366.219C125.184 365.405 123.549 364.558 121.958 363.704C121.464 363.439 121.279 362.822 121.544 362.324C121.808 361.829 122.424 361.644 122.921 361.912C124.49 362.754 126.106 363.589 127.723 364.394C128.226 364.642 128.43 365.255 128.182 365.757C128.004 366.116 127.643 366.325 127.268 366.325ZM279.168 366.301C278.793 366.301 278.435 366.092 278.257 365.736C278.006 365.231 278.212 364.621 278.714 364.37C280.313 363.575 281.923 362.742 283.494 361.897C283.991 361.63 284.605 361.815 284.872 362.313C285.136 362.808 284.951 363.425 284.457 363.69C282.864 364.546 281.236 365.391 279.618 366.196C279.473 366.266 279.32 366.301 279.168 366.301ZM117.691 361.175C117.52 361.175 117.344 361.133 117.182 361.039C115.608 360.126 114.032 359.178 112.495 358.221C112.02 357.925 111.872 357.297 112.17 356.818C112.465 356.342 113.093 356.194 113.568 356.492C115.088 357.437 116.646 358.373 118.201 359.274C118.688 359.556 118.852 360.18 118.571 360.666C118.384 360.992 118.042 361.175 117.691 361.175ZM288.706 361.17C288.357 361.17 288.015 360.987 287.825 360.661C287.544 360.175 287.71 359.551 288.198 359.27C289.736 358.378 291.292 357.444 292.814 356.497C293.292 356.201 293.917 356.346 294.213 356.823C294.51 357.301 294.362 357.928 293.887 358.226C292.346 359.185 290.774 360.131 289.214 361.034C289.055 361.126 288.879 361.17 288.706 361.17ZM297.906 355.441C297.578 355.441 297.255 355.281 297.061 354.988C296.749 354.519 296.876 353.888 297.342 353.576C298.825 352.588 300.317 351.558 301.778 350.514C302.235 350.188 302.87 350.293 303.195 350.751C303.521 351.208 303.415 351.844 302.959 352.173C301.478 353.228 299.97 354.27 298.471 355.272C298.298 355.387 298.101 355.441 297.906 355.441ZM108.462 355.429C108.27 355.429 108.073 355.375 107.9 355.258C106.384 354.244 104.869 353.2 103.403 352.151C102.946 351.825 102.841 351.189 103.166 350.732C103.492 350.274 104.126 350.167 104.583 350.495C106.033 351.53 107.527 352.564 109.026 353.564C109.495 353.876 109.621 354.509 109.31 354.976C109.115 355.272 108.792 355.429 108.462 355.429ZM306.732 349.139C306.425 349.139 306.123 349.001 305.922 348.738C305.582 348.29 305.669 347.651 306.116 347.311C307.54 346.225 308.964 345.101 310.351 343.973C310.787 343.618 311.426 343.684 311.78 344.12C312.136 344.557 312.068 345.197 311.632 345.554C310.229 346.697 308.789 347.832 307.348 348.93C307.163 349.071 306.948 349.139 306.732 349.139ZM99.6222 349.113C99.4067 349.113 99.1912 349.045 99.0062 348.904C97.5633 347.804 96.1205 346.664 94.7151 345.521C94.2795 345.164 94.2139 344.524 94.5675 344.088C94.9236 343.654 95.563 343.588 95.9987 343.94C97.3877 345.071 98.8141 346.197 100.238 347.285C100.686 347.626 100.772 348.264 100.433 348.712C100.231 348.975 99.9291 349.113 99.6222 349.113ZM315.146 342.288C314.86 342.288 314.579 342.168 314.377 341.936C314.01 341.512 314.057 340.869 314.478 340.5C315.832 339.327 317.183 338.114 318.497 336.899C318.91 336.519 319.554 336.542 319.933 336.955C320.315 337.368 320.289 338.013 319.877 338.396C318.547 339.625 317.179 340.852 315.811 342.039C315.619 342.206 315.382 342.288 315.146 342.288ZM91.1994 342.251C90.9628 342.251 90.7262 342.168 90.5341 342.002C89.1709 340.817 87.803 339.59 86.4655 338.354C86.0533 337.971 86.0299 337.328 86.4093 336.915C86.7911 336.502 87.4329 336.477 87.8452 336.859C89.1662 338.081 90.5201 339.292 91.8645 340.463C92.2885 340.831 92.3353 341.474 91.9676 341.899C91.7661 342.131 91.4851 342.251 91.1994 342.251ZM323.114 334.916C322.852 334.916 322.587 334.813 322.39 334.611C321.997 334.21 322.002 333.567 322.402 333.171C323.679 331.913 324.953 330.618 326.187 329.323C326.576 328.915 327.218 328.901 327.623 329.29C328.031 329.677 328.045 330.323 327.658 330.728C326.407 332.04 325.119 333.349 323.826 334.623C323.629 334.818 323.372 334.916 323.114 334.916ZM83.2309 334.872C82.9732 334.872 82.7156 334.776 82.5165 334.579C81.2282 333.309 79.9399 331.998 78.6892 330.684C78.3003 330.278 78.3168 329.633 78.722 329.246C79.1272 328.856 79.7713 328.87 80.1601 329.279C81.3969 330.578 82.6687 331.873 83.9429 333.129C84.3434 333.523 84.3481 334.168 83.9546 334.569C83.7555 334.771 83.4932 334.872 83.2309 334.872ZM330.607 327.054C330.366 327.054 330.122 326.968 329.928 326.794C329.511 326.419 329.473 325.776 329.848 325.356C331.043 324.021 332.235 322.646 333.387 321.273C333.748 320.844 334.388 320.788 334.819 321.149C335.247 321.513 335.303 322.156 334.943 322.585C333.776 323.974 332.572 325.363 331.364 326.714C331.162 326.939 330.886 327.054 330.607 327.054ZM75.7426 327.01C75.4639 327.01 75.1851 326.895 74.9836 326.67C73.782 325.325 72.5782 323.936 71.4094 322.543C71.0486 322.113 71.1048 321.47 71.5335 321.109C71.9644 320.746 72.6062 320.802 72.967 321.234C74.1217 322.611 75.3093 323.983 76.4992 325.313C76.8739 325.731 76.8388 326.374 76.4195 326.749C76.2251 326.923 75.9839 327.01 75.7426 327.01ZM337.592 318.73C337.372 318.73 337.149 318.657 336.962 318.512C336.521 318.162 336.446 317.524 336.793 317.081C337.901 315.675 339.004 314.228 340.068 312.783C340.403 312.33 341.037 312.236 341.489 312.567C341.941 312.902 342.037 313.538 341.703 313.991C340.625 315.455 339.51 316.919 338.391 318.343C338.189 318.596 337.892 318.73 337.592 318.73ZM68.7673 318.693C68.4674 318.693 68.1676 318.559 67.9685 318.305C66.8489 316.881 65.7363 315.42 64.6612 313.96C64.3286 313.508 64.4246 312.872 64.8767 312.536C65.3287 312.203 65.9635 312.299 66.2985 312.752C67.3595 314.193 68.4604 315.638 69.566 317.046C69.9126 317.487 69.8377 318.127 69.395 318.474C69.2099 318.622 68.9874 318.693 68.7673 318.693ZM344.04 309.979C343.841 309.979 343.64 309.92 343.464 309.798C343.003 309.479 342.885 308.846 343.204 308.381C344.23 306.896 345.237 305.383 346.202 303.884C346.507 303.41 347.134 303.274 347.607 303.579C348.078 303.884 348.214 304.515 347.91 304.986C346.935 306.504 345.914 308.036 344.879 309.538C344.682 309.824 344.363 309.979 344.04 309.979ZM62.333 309.955C62.0098 309.955 61.6912 309.803 61.4944 309.517C60.4685 308.027 59.4496 306.497 58.4705 304.972C58.166 304.501 58.3019 303.869 58.775 303.567C59.2482 303.262 59.8759 303.396 60.1804 303.869C61.1477 305.376 62.1549 306.887 63.1668 308.36C63.4877 308.822 63.3706 309.456 62.9092 309.775C62.7312 309.897 62.5321 309.955 62.333 309.955ZM56.4632 300.833C56.1189 300.833 55.7816 300.658 55.5919 300.338C54.6596 298.783 53.7414 297.195 52.8607 295.618C52.589 295.125 52.7647 294.506 53.2543 294.231C53.7438 293.957 54.3622 294.135 54.6385 294.623C55.5052 296.183 56.414 297.753 57.3345 299.292C57.625 299.773 57.468 300.399 56.9855 300.688C56.8216 300.787 56.6412 300.833 56.4632 300.833ZM349.924 300.831C349.746 300.831 349.566 300.784 349.402 300.686C348.921 300.395 348.765 299.771 349.053 299.287C349.98 297.744 350.889 296.169 351.76 294.604C352.034 294.114 352.653 293.936 353.145 294.213C353.634 294.485 353.81 295.106 353.536 295.597C352.655 297.181 351.732 298.774 350.798 300.336C350.606 300.653 350.271 300.831 349.924 300.831ZM51.186 291.362C50.8183 291.362 50.4646 291.16 50.2819 290.811C49.4527 289.204 48.6376 287.561 47.86 285.926C47.6164 285.419 47.8319 284.811 48.3378 284.57C48.8437 284.328 49.4527 284.542 49.6939 285.048C50.4622 286.665 51.268 288.289 52.0878 289.875C52.3454 290.374 52.151 290.989 51.6521 291.247C51.5046 291.324 51.3453 291.362 51.186 291.362ZM355.22 291.322C355.063 291.322 354.904 291.287 354.754 291.209C354.257 290.951 354.06 290.337 354.318 289.837C355.145 288.235 355.953 286.604 356.724 284.99C356.965 284.481 357.572 284.267 358.077 284.509C358.583 284.75 358.799 285.358 358.558 285.865C357.78 287.5 356.96 289.15 356.124 290.771C355.944 291.123 355.588 291.322 355.22 291.322ZM46.5225 281.578C46.1314 281.578 45.7589 281.351 45.5903 280.968C44.8641 279.31 44.1544 277.618 43.4822 275.945C43.2737 275.422 43.5267 274.831 44.0467 274.62C44.5691 274.409 45.1593 274.664 45.3701 275.185C46.033 276.839 46.7333 278.51 47.4524 280.15C47.6773 280.666 47.4454 281.266 46.9301 281.492C46.7989 281.553 46.6584 281.578 46.5225 281.578ZM359.902 281.492C359.766 281.492 359.628 281.466 359.495 281.407C358.982 281.18 358.747 280.579 358.972 280.065C359.691 278.42 360.396 276.741 361.064 275.07C361.272 274.547 361.865 274.294 362.385 274.502C362.907 274.714 363.16 275.305 362.952 275.828C362.275 277.517 361.563 279.218 360.834 280.882C360.668 281.264 360.293 281.492 359.902 281.492ZM42.4867 271.509C42.0698 271.509 41.681 271.251 41.5311 270.838C40.9104 269.134 40.3084 267.396 39.7416 265.674C39.5659 265.139 39.8563 264.564 40.3904 264.388C40.9197 264.214 41.4959 264.501 41.6716 265.036C42.2314 266.739 42.8264 268.456 43.44 270.138C43.6321 270.669 43.3604 271.253 42.8334 271.445C42.7187 271.488 42.6015 271.509 42.4867 271.509ZM363.95 271.375C363.835 271.375 363.718 271.356 363.603 271.314C363.076 271.122 362.804 270.537 362.996 270.009C363.61 268.323 364.205 266.598 364.765 264.888C364.94 264.353 365.514 264.06 366.048 264.238C366.58 264.414 366.873 264.989 366.697 265.524C366.128 267.255 365.526 268.998 364.905 270.706C364.755 271.119 364.367 271.375 363.95 271.375ZM39.0927 261.183C38.6547 261.183 38.2472 260.895 38.1184 260.451C37.6078 258.715 37.1182 256.941 36.6638 255.182C36.5209 254.637 36.8465 254.084 37.3899 253.94C37.9356 253.802 38.4884 254.126 38.629 254.67C39.081 256.409 39.5659 258.161 40.0695 259.879C40.2288 260.418 39.9196 260.984 39.3808 261.143C39.2848 261.169 39.1888 261.183 39.0927 261.183ZM367.339 261.033C367.245 261.033 367.149 261.019 367.053 260.991C366.514 260.834 366.205 260.268 366.362 259.726C366.866 258.006 367.348 256.254 367.798 254.518C367.939 253.973 368.489 253.65 369.035 253.788C369.578 253.929 369.906 254.485 369.765 255.029C369.311 256.784 368.824 258.558 368.313 260.301C368.184 260.744 367.779 261.033 367.339 261.033ZM36.3663 250.663C35.9002 250.663 35.481 250.341 35.3756 249.87C34.9774 248.099 34.6003 246.299 34.2583 244.516C34.1529 243.965 34.5136 243.432 35.064 243.324C35.6145 243.216 36.1485 243.58 36.2539 244.131C36.5936 245.893 36.9636 247.671 37.3571 249.419C37.4813 249.968 37.1369 250.513 36.5912 250.637C36.5139 250.656 36.439 250.663 36.3663 250.663ZM370.056 250.508C369.983 250.508 369.908 250.501 369.833 250.485C369.285 250.36 368.941 249.816 369.065 249.267C369.456 247.519 369.826 245.738 370.164 243.976C370.269 243.423 370.798 243.064 371.354 243.169C371.904 243.275 372.265 243.807 372.159 244.361C371.82 246.142 371.445 247.944 371.047 249.713C370.941 250.187 370.522 250.508 370.056 250.508ZM34.3145 239.99C33.825 239.99 33.3916 239.633 33.312 239.134C33.0286 237.348 32.7662 235.528 32.5367 233.721C32.4664 233.163 32.8599 232.654 33.4174 232.583C33.9725 232.518 34.4831 232.907 34.5534 233.463C34.7806 235.248 35.0383 237.048 35.3193 238.812C35.4084 239.366 35.0289 239.889 34.4761 239.978C34.4222 239.988 34.3684 239.99 34.3145 239.99ZM372.098 239.835C372.045 239.835 371.991 239.831 371.937 239.821C371.384 239.734 371.005 239.214 371.094 238.657C371.372 236.893 371.628 235.091 371.855 233.308C371.925 232.75 372.431 232.358 372.991 232.426C373.546 232.496 373.942 233.006 373.872 233.564C373.642 235.368 373.384 237.191 373.101 238.977C373.021 239.476 372.59 239.835 372.098 239.835ZM32.9442 229.209C32.4266 229.209 31.9839 228.815 31.9348 228.287C31.7614 226.478 31.6162 224.644 31.5014 222.837C31.4663 222.276 31.8926 221.793 32.4524 221.758C33.0099 221.718 33.4947 222.147 33.5322 222.708C33.6446 224.494 33.7875 226.307 33.9561 228.095C34.01 228.656 33.6001 229.151 33.0403 229.205C33.0099 229.207 32.977 229.209 32.9442 229.209ZM373.457 229.05C373.426 229.05 373.394 229.05 373.361 229.045C372.803 228.994 372.391 228.496 372.445 227.938C372.614 226.148 372.754 224.336 372.867 222.551C372.902 221.988 373.382 221.563 373.944 221.598C374.504 221.634 374.93 222.117 374.895 222.678C374.783 224.484 374.637 226.319 374.469 228.128C374.42 228.656 373.977 229.05 373.457 229.05ZM32.258 218.361C31.7122 218.361 31.2601 217.927 31.2414 217.375C31.1852 215.569 31.1547 213.729 31.1524 211.909C31.1524 211.346 31.6068 210.89 32.169 210.89C32.7288 210.89 33.1855 211.346 33.1855 211.906C33.1878 213.706 33.216 215.524 33.2745 217.31C33.2933 217.873 32.8506 218.342 32.2908 218.361C32.2791 218.361 32.2673 218.361 32.258 218.361ZM374.134 218.204C374.125 218.204 374.113 218.204 374.103 218.204C373.541 218.185 373.101 217.716 373.117 217.152C373.174 215.369 373.202 213.551 373.202 211.752V211.444C373.199 210.881 373.654 210.424 374.213 210.421C374.213 210.421 374.216 210.421 374.218 210.421C374.778 210.421 375.232 210.876 375.235 211.437V211.752C375.235 213.572 375.207 215.412 375.15 217.218C375.134 217.767 374.682 218.204 374.134 218.204ZM32.2486 207.493C32.2392 207.493 32.2275 207.493 32.2182 207.493C31.656 207.474 31.2157 207.005 31.2321 206.445C31.2883 204.624 31.3726 202.787 31.4826 200.983C31.5178 200.42 32.0073 199.992 32.5601 200.028C33.1223 200.063 33.5462 200.546 33.5135 201.107C33.4034 202.89 33.319 204.706 33.2652 206.506C33.2488 207.057 32.7967 207.493 32.2486 207.493ZM374.124 207.024C373.579 207.024 373.127 206.59 373.108 206.039C373.049 204.244 372.96 202.428 372.846 200.642C372.81 200.082 373.237 199.596 373.797 199.561C374.361 199.528 374.839 199.95 374.876 200.511C374.991 202.32 375.08 204.157 375.141 205.973C375.16 206.534 374.719 207.005 374.157 207.024C374.146 207.024 374.134 207.024 374.124 207.024ZM32.9185 196.645C32.8857 196.645 32.8529 196.645 32.8224 196.64C32.2626 196.588 31.8527 196.091 31.9043 195.532C32.0753 193.716 32.2744 191.889 32.4969 190.096C32.5671 189.54 33.0754 189.146 33.6329 189.214C34.1904 189.285 34.5839 189.794 34.516 190.352C34.2934 192.121 34.0967 193.928 33.928 195.722C33.8789 196.25 33.4361 196.645 32.9185 196.645ZM373.426 196.178C372.909 196.178 372.466 195.783 372.415 195.258C372.244 193.468 372.04 191.661 371.815 189.888C371.742 189.331 372.136 188.82 372.693 188.75C373.248 188.677 373.759 189.071 373.832 189.629C374.061 191.422 374.265 193.252 374.438 195.061C374.492 195.622 374.082 196.119 373.525 196.173C373.492 196.175 373.459 196.178 373.426 196.178ZM34.2677 185.861C34.2138 185.861 34.1623 185.857 34.1084 185.847C33.5533 185.761 33.1738 185.24 33.2628 184.684C33.5439 182.889 33.8601 181.078 34.1974 179.297C34.3028 178.746 34.8345 178.382 35.3873 178.487C35.9377 178.593 36.3008 179.126 36.1954 179.679C35.8604 181.437 35.5489 183.229 35.2702 185.003C35.1905 185.503 34.7595 185.861 34.2677 185.861ZM372.047 185.397C371.555 185.397 371.124 185.04 371.044 184.541C370.761 182.772 370.445 180.981 370.105 179.219C369.997 178.668 370.358 178.133 370.909 178.028C371.461 177.922 371.993 178.281 372.098 178.835C372.443 180.615 372.764 182.427 373.049 184.217C373.138 184.773 372.761 185.296 372.209 185.383C372.155 185.392 372.098 185.397 372.047 185.397ZM36.2984 175.184C36.2258 175.184 36.1509 175.177 36.0759 175.161C35.5278 175.036 35.1835 174.492 35.3053 173.945C35.7011 172.179 36.1298 170.391 36.5842 168.629C36.7224 168.085 37.2751 167.756 37.8209 167.897C38.3643 168.035 38.6923 168.591 38.5517 169.136C38.1043 170.876 37.6804 172.645 37.2892 174.389C37.1838 174.863 36.7645 175.184 36.2984 175.184ZM369.986 174.727C369.522 174.727 369.103 174.405 368.997 173.934C368.599 172.181 368.17 170.414 367.718 168.685C367.578 168.141 367.903 167.585 368.447 167.442C368.993 167.301 369.545 167.627 369.686 168.171C370.143 169.922 370.578 171.709 370.979 173.483C371.103 174.03 370.761 174.576 370.213 174.701C370.136 174.719 370.061 174.727 369.986 174.727ZM39.0061 164.659C38.9101 164.659 38.814 164.645 38.7204 164.617C38.1816 164.46 37.8725 163.894 38.0294 163.355C38.5353 161.616 39.0787 159.859 39.6432 158.13C39.8165 157.597 40.3927 157.304 40.9244 157.48C41.4585 157.656 41.7489 158.231 41.5756 158.765C41.0181 160.471 40.4817 162.207 39.9805 163.925C39.8517 164.371 39.4465 164.659 39.0061 164.659ZM367.252 164.209C366.812 164.209 366.407 163.922 366.278 163.479C365.77 161.759 365.228 160.023 364.669 158.322C364.491 157.787 364.781 157.212 365.313 157.036C365.844 156.858 366.421 157.149 366.599 157.684C367.166 159.406 367.714 161.161 368.227 162.902C368.386 163.441 368.077 164.009 367.538 164.166C367.442 164.195 367.346 164.209 367.252 164.209ZM42.3837 154.312C42.2689 154.312 42.1518 154.294 42.037 154.251C41.51 154.059 41.236 153.475 41.4281 152.947C42.0511 151.231 42.7069 149.507 43.3791 147.822C43.5876 147.3 44.1802 147.045 44.7002 147.255C45.2202 147.464 45.4755 148.056 45.2647 148.578C44.6018 150.243 43.953 151.945 43.3393 153.641C43.1894 154.054 42.8006 154.312 42.3837 154.312ZM363.849 153.888C363.434 153.888 363.045 153.632 362.896 153.219C362.282 151.537 361.628 149.84 360.961 148.176C360.752 147.655 361.003 147.061 361.525 146.852C362.045 146.642 362.636 146.894 362.846 147.416C363.523 149.1 364.181 150.817 364.805 152.52C364.997 153.048 364.727 153.632 364.2 153.827C364.083 153.869 363.966 153.888 363.849 153.888ZM46.4218 144.192C46.2859 144.192 46.1477 144.165 46.0142 144.107C45.5013 143.882 45.267 143.281 45.4919 142.765C46.218 141.102 46.9816 139.424 47.7616 137.78C48.0028 137.272 48.6118 137.057 49.1178 137.298C49.6237 137.54 49.8392 138.148 49.5979 138.656C48.8273 140.281 48.0707 141.938 47.354 143.582C47.1877 143.963 46.8129 144.192 46.4218 144.192ZM359.804 143.821C359.413 143.821 359.04 143.594 358.871 143.213C358.157 141.583 357.401 139.936 356.628 138.317C356.386 137.809 356.6 137.202 357.105 136.959C357.611 136.716 358.218 136.93 358.462 137.437C359.244 139.076 360.008 140.743 360.731 142.393C360.959 142.907 360.724 143.509 360.211 143.735C360.08 143.793 359.94 143.821 359.804 143.821ZM51.0946 134.357C50.9377 134.357 50.7784 134.32 50.6285 134.243C50.1296 133.985 49.9352 133.371 50.1905 132.871C51.0221 131.259 51.8887 129.635 52.7741 128.044C53.0481 127.552 53.6665 127.375 54.156 127.649C54.6479 127.923 54.8236 128.543 54.5495 129.034C53.6758 130.607 52.8186 132.212 51.9988 133.805C51.8184 134.155 51.4624 134.357 51.0946 134.357ZM355.131 134.042C354.763 134.042 354.409 133.842 354.227 133.492C353.407 131.903 352.547 130.307 351.676 128.746C351.402 128.255 351.578 127.635 352.067 127.361C352.557 127.085 353.177 127.261 353.449 127.752C354.332 129.332 355.201 130.947 356.033 132.555C356.29 133.054 356.096 133.669 355.597 133.928C355.449 134.005 355.288 134.042 355.131 134.042ZM56.3812 124.843C56.2032 124.843 56.0228 124.797 55.8589 124.698C55.3787 124.409 55.2218 123.784 55.5099 123.302C56.4421 121.743 57.4118 120.178 58.3932 118.651C58.6954 118.177 59.3255 118.042 59.7986 118.345C60.2694 118.649 60.4076 119.279 60.1031 119.753C59.1334 121.261 58.1754 122.807 57.2549 124.348C57.0628 124.667 56.7255 124.843 56.3812 124.843ZM349.847 124.575C349.502 124.575 349.165 124.399 348.975 124.081C348.052 122.547 347.094 121.007 346.125 119.503C345.82 119.031 345.956 118.401 346.429 118.096C346.9 117.792 347.53 117.927 347.835 118.4C348.814 119.921 349.783 121.479 350.716 123.032C351.006 123.514 350.852 124.139 350.369 124.429C350.205 124.528 350.025 124.575 349.847 124.575ZM62.258 115.691C62.0589 115.691 61.8575 115.633 61.6818 115.512C61.2204 115.192 61.1033 114.559 61.4218 114.095C62.4477 112.605 63.5135 111.106 64.5909 109.639C64.9259 109.187 65.5607 109.09 66.0127 109.423C66.4648 109.756 66.5608 110.394 66.2282 110.847C65.1624 112.296 64.1084 113.778 63.0965 115.251C62.8974 115.537 62.5813 115.691 62.258 115.691ZM343.97 115.457C343.647 115.457 343.33 115.304 343.134 115.018C342.115 113.543 341.061 112.067 340 110.628C339.665 110.176 339.761 109.539 340.213 109.204C340.663 108.87 341.3 108.965 341.635 109.418C342.707 110.873 343.775 112.368 344.804 113.859C345.125 114.322 345.007 114.956 344.546 115.276C344.37 115.398 344.169 115.457 343.97 115.457ZM68.6993 106.932C68.4791 106.932 68.2566 106.861 68.0716 106.715C67.6289 106.367 67.5539 105.727 67.9006 105.285C69.0178 103.863 70.175 102.435 71.3438 101.039C71.7045 100.608 72.3462 100.552 72.7749 100.913C73.2059 101.275 73.2621 101.917 72.9014 102.347C71.7466 103.726 70.6012 105.138 69.498 106.543C69.2966 106.8 68.9991 106.932 68.6993 106.932ZM337.526 106.725C337.226 106.725 336.929 106.593 336.728 106.338C335.62 104.931 334.474 103.523 333.324 102.153C332.961 101.722 333.017 101.08 333.446 100.719C333.877 100.357 334.519 100.412 334.877 100.842C336.044 102.228 337.203 103.652 338.325 105.077C338.672 105.518 338.597 106.158 338.156 106.506C337.969 106.654 337.746 106.725 337.526 106.725ZM75.677 98.603C75.4358 98.603 75.1945 98.5173 75.0001 98.3437C74.5808 97.9693 74.5457 97.3255 74.9181 96.906C76.1291 95.5501 77.3751 94.1987 78.6212 92.8884C79.01 92.482 79.6542 92.4668 80.0594 92.8544C80.4646 93.2427 80.481 93.8872 80.0945 94.2945C78.8625 95.5886 77.6305 96.9248 76.4359 98.2647C76.2345 98.4883 75.9557 98.603 75.677 98.603ZM330.544 98.4148C330.265 98.4148 329.986 98.3008 329.785 98.0767C328.593 96.7448 327.361 95.4115 326.124 94.1138C325.735 93.7072 325.749 93.0627 326.157 92.6744C326.562 92.2861 327.204 92.3 327.593 92.707C328.846 94.0202 330.092 95.3695 331.3 96.7171C331.675 97.1362 331.64 97.7797 331.221 98.1551C331.026 98.3292 330.785 98.4148 330.544 98.4148ZM83.163 90.7337C82.9006 90.7337 82.6383 90.6319 82.4392 90.4301C82.0457 90.0296 82.0504 89.3851 82.4509 88.9902C83.7391 87.717 85.0673 86.447 86.3977 85.2159C86.8076 84.8335 87.4517 84.8588 87.8335 85.2718C88.2153 85.6847 88.1895 86.3285 87.7773 86.7105C86.4632 87.9276 85.1516 89.1826 83.8774 90.4404C83.6783 90.6356 83.4206 90.7337 83.163 90.7337ZM323.046 90.5586C322.791 90.5586 322.533 90.4615 322.334 90.2668C321.058 89.0104 319.744 87.7571 318.427 86.5413C318.015 86.1603 317.989 85.5158 318.371 85.1026C318.75 84.6897 319.395 84.6636 319.807 85.0447C321.137 86.275 322.468 87.5429 323.761 88.8145C324.159 89.2087 324.166 89.8532 323.772 90.2546C323.573 90.4571 323.311 90.5586 323.046 90.5586ZM91.1267 83.355C90.8433 83.355 90.5599 83.2367 90.3585 83.0044C89.9907 82.5798 90.0352 81.9367 90.4592 81.5679C91.8224 80.3828 93.2278 79.1989 94.6355 78.0514C95.0712 77.6964 95.7106 77.7619 96.0642 78.1981C96.4203 78.6342 96.3547 79.2752 95.9191 79.6309C94.5277 80.7652 93.1411 81.9339 91.7919 83.106C91.5998 83.2721 91.361 83.355 91.1267 83.355ZM315.071 83.1879C314.834 83.1879 314.598 83.1067 314.405 82.9397C313.049 81.764 311.658 80.5961 310.271 79.4669C309.836 79.1126 309.768 78.4709 310.121 78.0348C310.475 77.5977 311.115 77.5317 311.553 77.886C312.958 79.0284 314.366 80.2108 315.736 81.3997C316.16 81.7675 316.207 82.4106 315.839 82.836C315.638 83.0689 315.354 83.1879 315.071 83.1879ZM99.5332 76.4959C99.2287 76.4959 98.9242 76.3582 98.7251 76.0952C98.3831 75.6482 98.4698 75.0096 98.9172 74.6685C100.355 73.5688 101.831 72.4778 103.302 71.4239C103.759 71.0966 104.393 71.2034 104.719 71.6604C105.047 72.1186 104.939 72.7545 104.485 73.0811C103.028 74.1218 101.571 75.2011 100.149 76.2869C99.9642 76.4279 99.7487 76.4959 99.5332 76.4959ZM306.641 76.3333C306.425 76.3333 306.21 76.266 306.027 76.1257C304.605 75.0429 303.144 73.9651 301.68 72.9206C301.221 72.5947 301.115 71.9589 301.441 71.5002C301.766 71.0429 302.401 70.9348 302.858 71.2613C304.341 72.3181 305.821 73.4097 307.257 74.5049C307.704 74.8456 307.791 75.4842 307.449 75.9321C307.25 76.1954 306.948 76.3333 306.641 76.3333ZM108.354 70.1849C108.026 70.1849 107.703 70.0261 107.506 69.7321C107.195 69.2648 107.321 68.6318 107.787 68.3197C109.298 67.3099 110.837 66.3149 112.369 65.3605C112.847 65.0637 113.472 65.2094 113.77 65.6864C114.065 66.1641 113.92 66.7919 113.442 67.0894C111.931 68.0321 110.408 69.0156 108.916 70.013C108.743 70.1298 108.546 70.1849 108.354 70.1849ZM297.794 70.0247C297.6 70.0247 297.403 69.9696 297.232 69.8539C295.74 68.861 294.213 67.877 292.688 66.9296C292.21 66.6328 292.065 66.005 292.36 65.5275C292.655 65.0492 293.283 64.9018 293.758 65.1993C295.302 66.1582 296.848 67.1532 298.356 68.1585C298.825 68.4699 298.951 69.1019 298.64 69.5702C298.445 69.8649 298.122 70.0247 297.794 70.0247ZM117.548 64.4488C117.199 64.4488 116.857 64.2674 116.667 63.9415C116.386 63.4552 116.552 62.8318 117.037 62.55C118.599 61.643 120.199 60.7479 121.792 59.8892C122.289 59.6222 122.905 59.808 123.169 60.3031C123.436 60.7979 123.251 61.4156 122.757 61.6822C121.183 62.5312 119.602 63.4153 118.058 64.3124C117.897 64.4047 117.721 64.4488 117.548 64.4488ZM288.561 64.2878C288.387 64.2878 288.214 64.2435 288.052 64.1506C286.502 63.2534 284.914 62.3686 283.333 61.5203C282.836 61.2551 282.651 60.6376 282.916 60.1419C283.18 59.6461 283.796 59.4596 284.293 59.7252C285.893 60.5832 287.5 61.4787 289.069 62.3874C289.556 62.6685 289.722 63.2912 289.441 63.7782C289.254 64.1055 288.912 64.2878 288.561 64.2878ZM127.083 59.3102C126.708 59.3102 126.35 59.1032 126.172 58.7454C125.921 58.2417 126.125 57.6305 126.629 57.3802C128.243 56.5752 129.896 55.7841 131.541 55.0277C132.051 54.7926 132.656 55.0169 132.887 55.5286C133.122 56.0396 132.899 56.6442 132.388 56.8786C130.763 57.6261 129.13 58.4078 127.535 59.2034C127.39 59.2759 127.235 59.3102 127.083 59.3102ZM278.978 59.1476C278.826 59.1476 278.674 59.1133 278.529 59.0415C276.922 58.2452 275.28 57.4628 273.647 56.7174C273.137 56.4844 272.909 55.8805 273.144 55.3688C273.376 54.8571 273.978 54.63 274.488 54.8644C276.142 55.6194 277.805 56.4112 279.43 57.2169C279.932 57.4665 280.138 58.077 279.889 58.5805C279.711 58.9392 279.351 59.1476 278.978 59.1476ZM136.916 54.7905C136.52 54.7905 136.143 54.5559 135.979 54.1669C135.761 53.6486 136.005 53.0513 136.523 52.8335C138.186 52.1325 139.886 51.4479 141.57 50.8006C142.095 50.5981 142.683 50.8623 142.884 51.3864C143.086 51.911 142.823 52.4997 142.299 52.7015C140.633 53.3417 138.956 54.0174 137.31 54.7105C137.183 54.7649 137.05 54.7905 136.916 54.7905ZM269.082 54.6286C268.953 54.6286 268.82 54.603 268.691 54.5495C267.037 53.8577 265.349 53.1813 263.669 52.5412C263.144 52.3409 262.88 51.7529 263.079 51.2273C263.28 50.7018 263.866 50.4362 264.391 50.638C266.091 51.2862 267.801 51.9699 269.476 52.671C269.993 52.888 270.237 53.4839 270.021 54.0029C269.857 54.3926 269.48 54.6286 269.082 54.6286ZM147.03 50.9036C146.611 50.9036 146.217 50.6401 146.07 50.2192C145.887 49.688 146.168 49.1081 146.698 48.9229C148.407 48.3284 150.15 47.7522 151.881 47.2107C152.417 47.0415 152.987 47.3421 153.155 47.8791C153.322 48.4162 153.024 48.9875 152.488 49.1545C150.778 49.6894 149.054 50.2584 147.365 50.8463C147.255 50.8855 147.14 50.9036 147.03 50.9036ZM258.914 50.7499C258.804 50.7499 258.692 50.7316 258.582 50.6938C256.886 50.1082 255.155 49.5421 253.438 49.0107C252.902 48.8446 252.602 48.2747 252.768 47.7377C252.932 47.2006 253.504 46.9008 254.038 47.0655C255.776 47.6035 257.528 48.1762 259.245 48.7683C259.774 48.952 260.057 49.5311 259.875 50.0625C259.729 50.4848 259.336 50.7499 258.914 50.7499ZM157.388 47.6659C156.943 47.6659 156.533 47.3705 156.409 46.9198C156.259 46.3776 156.575 45.8164 157.116 45.6662C158.866 45.1806 160.644 44.7177 162.398 44.2892C162.946 44.1565 163.494 44.4917 163.628 45.0384C163.759 45.5848 163.424 46.1357 162.88 46.2685C161.142 46.6917 159.386 47.149 157.659 47.6288C157.57 47.6541 157.477 47.6659 157.388 47.6659ZM248.531 47.5359C248.442 47.5359 248.351 47.5241 248.262 47.4995C246.531 47.0242 244.774 46.5721 243.036 46.154C242.49 46.0226 242.155 45.4731 242.286 44.9265C242.418 44.38 242.963 44.041 243.511 44.1738C245.268 44.5964 247.046 45.0543 248.798 45.5348C249.339 45.6836 249.658 46.2438 249.508 46.786C249.386 47.2391 248.976 47.5359 248.531 47.5359ZM167.93 45.098C167.46 45.098 167.038 44.7683 166.937 44.2878C166.82 43.7377 167.174 43.1976 167.722 43.0824C169.49 42.7114 171.294 42.3623 173.081 42.0465C173.632 41.9506 174.161 42.318 174.259 42.8717C174.358 43.4256 173.988 43.954 173.435 44.0511C171.669 44.3641 169.886 44.708 168.139 45.0755C168.071 45.0907 168.001 45.098 167.93 45.098ZM237.981 44.9985C237.911 44.9985 237.843 44.9912 237.773 44.9767C236.021 44.6137 234.238 44.2747 232.475 43.9678C231.922 43.8721 231.552 43.3444 231.648 42.7905C231.744 42.2368 232.273 41.8659 232.821 41.9609C234.606 42.2708 236.41 42.6148 238.185 42.9822C238.733 43.096 239.087 43.6347 238.974 44.1855C238.876 44.6667 238.452 44.9985 237.981 44.9985ZM178.616 43.2079C178.117 43.2079 177.684 42.8419 177.611 42.3346C177.531 41.7779 177.916 41.262 178.471 41.182C180.263 40.9244 182.083 40.6914 183.886 40.4896C184.441 40.4279 184.947 40.83 185.008 41.3882C185.071 41.9471 184.668 42.4508 184.111 42.5132C182.331 42.7121 180.532 42.943 178.761 43.1976C178.712 43.2051 178.663 43.2079 178.616 43.2079ZM227.291 43.1389C227.244 43.1389 227.195 43.1352 227.146 43.1286C225.373 42.8782 223.571 42.6526 221.796 42.4588C221.236 42.3978 220.833 41.8957 220.894 41.3366C220.955 40.7777 221.456 40.3721 222.014 40.4345C223.813 40.6304 225.635 40.8584 227.432 41.1116C227.987 41.1899 228.376 41.7054 228.296 42.2621C228.223 42.7717 227.788 43.1389 227.291 43.1389ZM189.398 42.0008C188.873 42.0008 188.428 41.5965 188.386 41.0637C188.341 40.5028 188.758 40.0119 189.318 39.9678C191.124 39.8233 192.955 39.7058 194.766 39.6187C195.335 39.5875 195.804 40.0244 195.829 40.5863C195.855 41.1479 195.424 41.6256 194.864 41.6524C193.077 41.7387 191.264 41.8549 189.482 41.998C189.451 42.0001 189.426 42.0008 189.398 42.0008ZM216.505 41.963C216.477 41.963 216.451 41.9623 216.425 41.9602C214.647 41.8222 212.834 41.7113 211.04 41.6298C210.48 41.6045 210.047 41.1285 210.073 40.5666C210.099 40.0042 210.574 39.5605 211.134 39.5955C212.949 39.6783 214.783 39.7907 216.582 39.9293C217.142 39.9727 217.559 40.4622 217.517 41.0231C217.474 41.5574 217.029 41.963 216.505 41.963ZM200.235 41.4766C199.683 41.4766 199.23 41.0318 199.221 40.4758C199.212 39.9134 199.659 39.4502 200.219 39.4409C202.036 39.4097 203.861 39.4073 205.679 39.4336C206.241 39.4416 206.688 39.904 206.681 40.4664C206.672 41.0238 206.22 41.4703 205.665 41.4703C205.66 41.4703 205.655 41.4703 205.651 41.4703C203.854 41.4457 202.048 41.4478 200.254 41.4776C200.249 41.4766 200.242 41.4766 200.235 41.4766Z" fill="#FF7383"/>
<path fill-rule="evenodd" clip-rule="evenodd" d="M276.039 261.481H131.051C128.205 261.481 125.898 259.168 125.898 256.315V154.033C125.898 151.179 128.205 148.865 131.051 148.865H276.039C278.885 148.865 281.192 151.178 281.192 154.033V256.315C281.192 259.168 278.885 261.481 276.039 261.481Z" stroke="#FF7383" stroke-width="3.09357" stroke-miterlimit="8"/>
<path fill-rule="evenodd" clip-rule="evenodd" d="M130.615 261.364H276.243C278.911 261.364 281.075 259.21 281.075 256.557V239.31H125.781V256.557C125.781 259.21 127.945 261.364 130.615 261.364Z" fill="#FF7383"/>
<path fill-rule="evenodd" clip-rule="evenodd" d="M228.352 278.92L222.225 274.789V261.716H184.865V274.789L178.738 278.92C177.618 279.676 178.152 281.424 179.504 281.424H227.588C228.938 281.424 229.472 279.676 228.352 278.92Z" stroke="#FF7383" stroke-width="3.09357" stroke-miterlimit="8"/>
<path fill-rule="evenodd" clip-rule="evenodd" d="M267.665 230.864H139.193C138.382 230.864 137.727 230.207 137.727 229.397V158.191C137.727 157.381 138.382 156.724 139.193 156.724H267.663C268.473 156.724 269.129 157.381 269.129 158.191V229.397C269.129 230.207 268.473 230.864 267.665 230.864Z" fill="#FF7383"/>
<path fill-rule="evenodd" clip-rule="evenodd" d="M302.043 28.2712H254.719C248.255 28.2712 243.013 33.5187 243.013 39.9913V57.705C243.013 64.1776 248.255 69.425 254.719 69.425H282.117L281.733 80.591L299.307 69.425H302.043C308.508 69.425 313.75 64.1776 313.75 57.705V39.9913C313.75 33.5187 308.508 28.2712 302.043 28.2712Z" stroke="#FF7383" stroke-width="3.09357" stroke-miterlimit="8"/>
<path fill-rule="evenodd" clip-rule="evenodd" d="M262.571 47.0404C262.571 48.7897 261.102 50.208 259.291 50.208C257.481 50.208 256.012 48.7897 256.012 47.0404C256.012 45.2909 257.481 43.8733 259.291 43.8733C261.102 43.8726 262.571 45.2909 262.571 47.0404Z" fill="#FF7383"/>
<path fill-rule="evenodd" clip-rule="evenodd" d="M275.219 47.0404C275.219 48.7897 273.75 50.208 271.94 50.208C270.129 50.208 268.661 48.7897 268.661 47.0404C268.661 45.2909 270.129 43.8733 271.94 43.8733C273.75 43.8726 275.219 45.2909 275.219 47.0404Z" fill="#FF7383"/>
<path fill-rule="evenodd" clip-rule="evenodd" d="M287.633 47.0404C287.633 48.7897 286.218 50.208 284.471 50.208C282.726 50.208 281.309 48.7897 281.309 47.0404C281.309 45.2909 282.724 43.8733 284.471 43.8733C286.216 43.8726 287.633 45.2909 287.633 47.0404Z" fill="#FF7383"/>
<path fill-rule="evenodd" clip-rule="evenodd" d="M300.282 47.0404C300.282 48.7897 298.864 50.208 297.119 50.208C295.372 50.208 293.957 48.7897 293.957 47.0404C293.957 45.2909 295.374 43.8733 297.119 43.8733C298.864 43.8733 300.282 45.2909 300.282 47.0404Z" fill="#FF7383"/>
<path fill-rule="evenodd" clip-rule="evenodd" d="M133.979 0.351807C151.766 0.351103 166.185 14.7583 166.185 32.5301C166.185 44.8297 150.759 73.2226 141.259 89.5431C138.01 95.1251 129.948 95.1251 126.699 89.5431C117.199 73.2226 101.772 44.8297 101.772 32.5301C101.772 14.7583 116.192 0.351807 133.979 0.351807ZM133.789 9.89465C122.378 9.89465 113.126 19.1372 113.126 30.5384C113.126 41.9397 122.378 51.1822 133.789 51.1822C145.198 51.1822 154.451 41.9397 154.451 30.5384C154.451 19.1372 145.198 9.89465 133.789 9.89465Z" fill="#FF7383" stroke="#FF7383" stroke-width="3.09357" stroke-miterlimit="8"/>
<path fill-rule="evenodd" clip-rule="evenodd" d="M395.936 309.343H333.219C330.617 309.343 328.506 307.229 328.506 304.623V241.802C328.506 239.195 330.617 237.081 333.219 237.081H395.936C398.538 237.081 400.649 239.195 400.649 241.802V304.623C400.649 307.229 398.538 309.343 395.936 309.343Z" stroke="#FF7383" stroke-width="3.09357" stroke-miterlimit="8"/>
<path fill-rule="evenodd" clip-rule="evenodd" d="M335.533 244.12H393.153V291.278H335.533V244.12Z" stroke="#FF7383" stroke-width="3.09357" stroke-miterlimit="8"/>
<path fill-rule="evenodd" clip-rule="evenodd" d="M348.804 266.122L335.416 282.606V291.16H382.496L361.863 266.08C358.478 261.964 352.163 261.986 348.804 266.122Z" fill="#FF7383"/>
<path fill-rule="evenodd" clip-rule="evenodd" d="M385.089 270.887C382.365 267.56 377.287 267.577 374.586 270.92L371.721 274.465L385.386 291.16H393.036V280.598L385.089 270.887Z" fill="#FF7383"/>
<path fill-rule="evenodd" clip-rule="evenodd" d="M385.841 257.61C386.096 257.101 386.244 256.531 386.244 255.923C386.244 253.83 384.531 252.134 382.421 252.134C380.964 252.134 379.697 252.944 379.053 254.131C378.678 253.962 378.266 253.866 377.83 253.866C377.49 253.866 377.167 253.924 376.865 254.03C376.865 254.002 376.867 253.976 376.867 253.948C376.867 251.306 374.708 249.164 372.04 249.164C369.374 249.164 367.215 251.306 367.215 253.948C367.215 254.321 367.262 254.682 367.344 255.032C367.121 254.964 366.885 254.928 366.639 254.928C365.306 254.928 364.226 255.998 364.226 257.319C364.226 257.418 364.233 257.514 364.245 257.61H385.841Z" fill="#FF7383"/>
<path fill-rule="evenodd" clip-rule="evenodd" d="M78.1153 278.96C78.1153 300.404 60.7074 317.79 39.2333 317.79C17.7592 317.79 0.351318 300.404 0.351318 278.96C0.351318 257.516 17.7592 240.131 39.2333 240.131C60.7074 240.131 78.1153 257.516 78.1153 278.96Z" stroke="#FF7383" stroke-width="3.09357" stroke-miterlimit="8"/>
<path fill-rule="evenodd" clip-rule="evenodd" d="M60.3045 282.015L29.1873 299.858C26.3648 301.476 22.8373 299.454 22.8373 296.216V260.531C22.8373 257.293 26.3648 255.271 29.1873 256.89L60.3045 274.732C63.127 276.351 63.127 280.396 60.3045 282.015Z" fill="#FF7383" stroke="#FF7383" stroke-width="3.09357" stroke-miterlimit="8"/>
<path fill-rule="evenodd" clip-rule="evenodd" d="M60.3045 274.756L57.6086 273.212L29.1873 289.495C26.3648 291.111 22.8373 289.091 22.8373 285.858V296.221C22.8373 299.454 26.3648 301.474 29.1873 299.86L60.3045 282.031C63.127 280.415 63.127 276.372 60.3045 274.756Z" fill="#FF7383" stroke="#FF7383" stroke-width="3.09357" stroke-miterlimit="8"/>
<path fill-rule="evenodd" clip-rule="evenodd" d="M277.561 354.038H258.354V348.764C258.354 347.53 259.32 346.53 260.509 346.53H275.406C276.596 346.53 277.561 347.53 277.561 348.764V354.038Z" fill="#FF7383"/>
<path fill-rule="evenodd" clip-rule="evenodd" d="M333.165 405.536H254.516C251.913 405.536 249.805 403.42 249.805 400.807V354.662C249.805 352.048 251.913 349.932 254.516 349.932H333.165C335.767 349.932 337.875 352.048 337.875 354.662V400.807C337.875 403.42 335.767 405.536 333.165 405.536Z" stroke="#FF7383" stroke-width="3.09357" stroke-miterlimit="8"/>
<path fill-rule="evenodd" clip-rule="evenodd" d="M333.165 349.932H254.516C251.913 349.932 249.805 352.069 249.805 354.707V370.578H337.875V354.707C337.875 352.069 335.767 349.932 333.165 349.932Z" stroke="#FF7383" stroke-width="3.09357" stroke-miterlimit="8"/>
<path fill-rule="evenodd" clip-rule="evenodd" d="M293.723 400.609C281.131 400.609 270.886 390.347 270.886 377.734C270.886 365.121 281.131 354.859 293.723 354.859C306.315 354.859 316.56 365.121 316.56 377.734C316.56 390.347 306.315 400.609 293.723 400.609Z" stroke="#FF7383" stroke-width="3.09357" stroke-miterlimit="8"/>
<path fill-rule="evenodd" clip-rule="evenodd" d="M308.063 363.308C315.998 371.256 315.998 384.142 308.063 392.09C300.129 400.039 287.263 400.039 279.33 392.09C271.394 384.142 271.394 371.256 279.33 363.308C287.263 355.361 300.129 355.361 308.063 363.308Z" stroke="#FF7383" stroke-width="3.09357" stroke-miterlimit="8"/>
<path fill-rule="evenodd" clip-rule="evenodd" d="M311.056 377.617C311.056 387.271 303.244 395.096 293.606 395.096C283.967 395.096 276.156 387.271 276.156 377.617C276.156 367.962 283.967 360.138 293.606 360.138C303.244 360.138 311.056 367.962 311.056 377.617Z" fill="#FF7383"/>
<path fill-rule="evenodd" clip-rule="evenodd" d="M332.371 398.498C332.371 399.859 331.27 400.961 329.911 400.961C328.553 400.961 327.452 399.859 327.452 398.498C327.452 397.137 328.553 396.034 329.911 396.034C331.27 396.034 332.371 397.137 332.371 398.498Z" fill="#FF7383"/>
<path fill-rule="evenodd" clip-rule="evenodd" d="M102.709 370.461L105.515 398.029L113.856 375.238L169.699 334.682L102.709 370.461Z" stroke="#FF7383" stroke-width="3.09357" stroke-miterlimit="8"/>
<path fill-rule="evenodd" clip-rule="evenodd" d="M105.52 398.029L113.861 375.238L169.699 334.682L105.52 398.029Z" stroke="#FF7383" stroke-width="3.09357" stroke-miterlimit="8"/>
<path fill-rule="evenodd" clip-rule="evenodd" d="M169.699 334.682L79.7549 358.268C79.7549 358.268 101.229 370.78 102.747 370.332C104.265 369.882 169.699 334.682 169.699 334.682Z" stroke="#FF7383" stroke-width="3.09357" stroke-miterlimit="8"/>
<path fill-rule="evenodd" clip-rule="evenodd" d="M169.699 334.682L136.249 407.179L113.952 375.254L169.699 334.682Z" stroke="#FF7383" stroke-width="3.09357" stroke-miterlimit="8"/>
<path fill-rule="evenodd" clip-rule="evenodd" d="M79.755 170.684H11.8286V126.461L40.4209 105.175C43.7048 102.73 48.1949 102.741 51.4671 105.201L79.755 126.461V170.684Z" stroke="#FF7383" stroke-width="3.09357" stroke-miterlimit="8"/>
<path fill-rule="evenodd" clip-rule="evenodd" d="M11.8286 126.576L46.026 150.061L11.8286 170.684V126.576Z" stroke="#FF7383" stroke-width="3.09357" stroke-miterlimit="8"/>
<path fill-rule="evenodd" clip-rule="evenodd" d="M79.755 126.576L46.026 150.061L79.755 170.684V126.576Z" stroke="#FF7383" stroke-width="3.09357" stroke-miterlimit="8"/>
<path fill-rule="evenodd" clip-rule="evenodd" d="M11.8286 170.684L39.8072 148.204C43.3979 145.32 48.4995 145.332 52.0761 148.233L79.755 170.684H11.8286Z" fill="#FF7383" stroke="#FF7383" stroke-width="3.09357" stroke-miterlimit="8"/>
<path fill-rule="evenodd" clip-rule="evenodd" d="M398.236 187.107H345.441C344.108 187.107 343.028 186.026 343.028 184.691V125.942L358.991 109.684H398.236C399.569 109.684 400.649 110.766 400.649 112.101V184.691C400.649 186.026 399.569 187.107 398.236 187.107Z" stroke="#FF7383" stroke-width="3.09357" stroke-miterlimit="8"/>
<path fill-rule="evenodd" clip-rule="evenodd" d="M343.028 125.872H358.956V109.684L343.028 125.872Z" fill="#FF7383" stroke="#FF7383" stroke-width="3.09357" stroke-miterlimit="8"/>
<path fill-rule="evenodd" clip-rule="evenodd" d="M394.125 134.201H349.317C348.755 134.201 348.298 133.729 348.298 133.145C348.298 132.562 348.755 132.09 349.317 132.09H394.125C394.687 132.09 395.144 132.562 395.144 133.145C395.144 133.728 394.687 134.201 394.125 134.201Z" fill="#FF7383"/>
<path fill-rule="evenodd" clip-rule="evenodd" d="M394.125 139.832H349.317C348.755 139.832 348.298 139.359 348.298 138.776C348.298 138.193 348.755 137.72 349.317 137.72H394.125C394.687 137.72 395.144 138.193 395.144 138.776C395.144 139.359 394.687 139.832 394.125 139.832Z" fill="#FF7383"/>
<path fill-rule="evenodd" clip-rule="evenodd" d="M394.125 145.463H349.317C348.755 145.463 348.298 144.99 348.298 144.407C348.298 143.824 348.755 143.351 349.317 143.351H394.125C394.687 143.351 395.144 143.824 395.144 144.407C395.144 144.99 394.687 145.463 394.125 145.463Z" fill="#FF7383"/>
<path fill-rule="evenodd" clip-rule="evenodd" d="M394.125 151.093H349.317C348.755 151.093 348.298 150.621 348.298 150.038C348.298 149.454 348.755 148.982 349.317 148.982H394.125C394.687 148.982 395.144 149.454 395.144 150.038C395.144 150.621 394.687 151.093 394.125 151.093Z" fill="#FF7383"/>
<path fill-rule="evenodd" clip-rule="evenodd" d="M394.125 156.724H349.317C348.755 156.724 348.298 156.253 348.298 155.669C348.298 155.084 348.755 154.613 349.317 154.613H394.125C394.687 154.613 395.144 155.084 395.144 155.669C395.144 156.253 394.687 156.724 394.125 156.724Z" fill="#FF7383"/>
<path fill-rule="evenodd" clip-rule="evenodd" d="M394.125 162.355H349.317C348.755 162.355 348.298 161.884 348.298 161.299C348.298 160.715 348.755 160.244 349.317 160.244H394.125C394.687 160.244 395.144 160.715 395.144 161.299C395.144 161.884 394.687 162.355 394.125 162.355Z" fill="#FF7383"/>
<path fill-rule="evenodd" clip-rule="evenodd" d="M394.125 167.986H349.317C348.755 167.986 348.298 167.514 348.298 166.93C348.298 166.346 348.755 165.875 349.317 165.875H394.125C394.687 165.875 395.144 166.346 395.144 166.93C395.144 167.514 394.687 167.986 394.125 167.986Z" fill="#FF7383"/>
<path fill-rule="evenodd" clip-rule="evenodd" d="M394.125 173.617H349.317C348.755 173.617 348.298 173.145 348.298 172.561C348.298 171.977 348.755 171.505 349.317 171.505H394.125C394.687 171.505 395.144 171.977 395.144 172.561C395.144 173.145 394.687 173.617 394.125 173.617Z" fill="#FF7383"/>
<path fill-rule="evenodd" clip-rule="evenodd" d="M394.125 179.248H349.317C348.755 179.248 348.298 178.776 348.298 178.192C348.298 177.608 348.755 177.136 349.317 177.136H394.125C394.687 177.136 395.144 177.608 395.144 178.192C395.144 178.776 394.687 179.248 394.125 179.248Z" fill="#FF7383"/>
</g>
<defs>
<clipPath id="clip0_541_147">
<rect width="401" height="408" fill="white"/>
</clipPath>
</defs>
</svg>
