<svg width="1286" height="1007" xmlns="http://www.w3.org/2000/svg" xmlns:xlink="http://www.w3.org/1999/xlink" xml:space="preserve" overflow="hidden"><g transform="translate(-476 -280)"><path d="M487.5 340.176C487.5 313.293 509.293 291.5 536.176 291.5L1701.82 291.5C1728.71 291.5 1750.5 313.293 1750.5 340.176L1750.5 1226.79C1750.5 1253.67 1728.71 1275.47 1701.82 1275.47L536.176 1275.47C509.293 1275.47 487.5 1253.67 487.5 1226.79Z" stroke="#FFFFFF" stroke-width="22.9167" stroke-miterlimit="8" fill="none" fill-rule="evenodd"/><path d="M487.5 499.5 1750.25 499.5" stroke="#FFFFFF" stroke-width="22.9167" stroke-miterlimit="8" fill="none" fill-rule="evenodd"/><path d="M573.5 587.316C573.5 583 576.999 579.5 581.316 579.5L724.684 579.5C729.001 579.5 732.5 583 732.5 587.316L732.5 729.684C732.5 734 729.001 737.5 724.684 737.5L581.316 737.5C576.999 737.5 573.5 734 573.5 729.684Z" stroke="#FFFFFF" stroke-width="22.9167" stroke-miterlimit="8" fill="#FFFFFF" fill-rule="evenodd"/><path d="M810.5 587.316C810.5 583 814 579.5 818.316 579.5L960.684 579.5C965 579.5 968.5 583 968.5 587.316L968.5 729.684C968.5 734 965 737.5 960.684 737.5L818.316 737.5C814 737.5 810.5 734 810.5 729.684Z" stroke="#FFFFFF" stroke-width="22.9167" stroke-miterlimit="8" fill="none" fill-rule="evenodd"/><path d="M1047.5 587.316C1047.5 583 1051 579.5 1055.32 579.5L1197.68 579.5C1202 579.5 1205.5 583 1205.5 587.316L1205.5 729.684C1205.5 734.001 1202 737.5 1197.68 737.5L1055.32 737.5C1051 737.5 1047.5 734.001 1047.5 729.684Z" stroke="#FFFFFF" stroke-width="22.9167" stroke-miterlimit="8" fill="#FFFFFF" fill-rule="evenodd"/><path d="M1284.5 587.316C1284.5 583 1288 579.5 1292.32 579.5L1434.68 579.5C1439 579.5 1442.5 583 1442.5 587.316L1442.5 729.684C1442.5 734 1439 737.5 1434.68 737.5L1292.32 737.5C1288 737.5 1284.5 734 1284.5 729.684Z" stroke="#FFFFFF" stroke-width="22.9167" stroke-miterlimit="8" fill="none" fill-rule="evenodd"/><path d="M1520.5 587.316C1520.5 583 1524 579.5 1528.32 579.5L1671.68 579.5C1676 579.5 1679.5 583 1679.5 587.316L1679.5 729.684C1679.5 734 1676 737.5 1671.68 737.5L1528.32 737.5C1524 737.5 1520.5 734 1520.5 729.684Z" stroke="#FFFFFF" stroke-width="22.9167" stroke-miterlimit="8" fill="#FFFFFF" fill-rule="evenodd"/><path d="M573.5 810.316C573.5 806 576.999 802.5 581.316 802.5L724.684 802.5C729.001 802.5 732.5 806 732.5 810.316L732.5 952.684C732.5 957 729.001 960.5 724.684 960.5L581.316 960.5C576.999 960.5 573.5 957 573.5 952.684Z" stroke="#FFFFFF" stroke-width="22.9167" stroke-miterlimit="8" fill="none" fill-rule="evenodd"/><path d="M810.5 810.316C810.5 806 814 802.5 818.316 802.5L960.684 802.5C965 802.5 968.5 806 968.5 810.316L968.5 952.684C968.5 957.001 965 960.5 960.684 960.5L818.316 960.5C814 960.5 810.5 957.001 810.5 952.684Z" stroke="#FFFFFF" stroke-width="22.9167" stroke-miterlimit="8" fill="#FFFFFF" fill-rule="evenodd"/><path d="M1047.5 810.316C1047.5 806 1051 802.5 1055.32 802.5L1197.68 802.5C1202 802.5 1205.5 806 1205.5 810.316L1205.5 952.684C1205.5 957.001 1202 960.5 1197.68 960.5L1055.32 960.5C1051 960.5 1047.5 957.001 1047.5 952.684Z" stroke="#FFFFFF" stroke-width="22.9167" stroke-miterlimit="8" fill="none" fill-rule="evenodd"/><path d="M1284.5 810.316C1284.5 806 1288 802.5 1292.32 802.5L1434.68 802.5C1439 802.5 1442.5 806 1442.5 810.316L1442.5 952.684C1442.5 957.001 1439 960.5 1434.68 960.5L1292.32 960.5C1288 960.5 1284.5 957.001 1284.5 952.684Z" stroke="#FFFFFF" stroke-width="22.9167" stroke-miterlimit="8" fill="#FFFFFF" fill-rule="evenodd"/><path d="M1520.5 810.316C1520.5 806 1524 802.5 1528.32 802.5L1671.68 802.5C1676 802.5 1679.5 806 1679.5 810.316L1679.5 952.684C1679.5 957 1676 960.5 1671.68 960.5L1528.32 960.5C1524 960.5 1520.5 957 1520.5 952.684Z" stroke="#FFFFFF" stroke-width="22.9167" stroke-miterlimit="8" fill="none" fill-rule="evenodd"/><path d="M573.5 1033.32C573.5 1029 576.999 1025.5 581.316 1025.5L724.684 1025.5C729.001 1025.5 732.5 1029 732.5 1033.32L732.5 1175.68C732.5 1180 729.001 1183.5 724.684 1183.5L581.316 1183.5C576.999 1183.5 573.5 1180 573.5 1175.68Z" stroke="#FFFFFF" stroke-width="22.9167" stroke-miterlimit="8" fill="none" fill-rule="evenodd"/><path d="M810.5 1033.32C810.5 1029 814 1025.5 818.316 1025.5L960.684 1025.5C965.001 1025.5 968.5 1029 968.5 1033.32L968.5 1175.68C968.5 1180 965.001 1183.5 960.684 1183.5L818.316 1183.5C814 1183.5 810.5 1180 810.5 1175.68Z" stroke="#FFFFFF" stroke-width="22.9167" stroke-miterlimit="8" fill="#FFFFFF" fill-rule="evenodd"/><path d="M1047.5 1033.32C1047.5 1029 1051 1025.5 1055.32 1025.5L1197.68 1025.5C1202 1025.5 1205.5 1029 1205.5 1033.32L1205.5 1175.68C1205.5 1180 1202 1183.5 1197.68 1183.5L1055.32 1183.5C1051 1183.5 1047.5 1180 1047.5 1175.68Z" stroke="#FFFFFF" stroke-width="22.9167" stroke-miterlimit="8" fill="#FFFFFF" fill-rule="evenodd"/><path d="M1284.5 1033.32C1284.5 1029 1288 1025.5 1292.32 1025.5L1434.68 1025.5C1439 1025.5 1442.5 1029 1442.5 1033.32L1442.5 1175.68C1442.5 1180 1439 1183.5 1434.68 1183.5L1292.32 1183.5C1288 1183.5 1284.5 1180 1284.5 1175.68Z" stroke="#FFFFFF" stroke-width="22.9167" stroke-miterlimit="8" fill="none" fill-rule="evenodd"/><path d="M1520.5 1033.32C1520.5 1029 1524 1025.5 1528.32 1025.5L1671.68 1025.5C1676 1025.5 1679.5 1029 1679.5 1033.32L1679.5 1175.68C1679.5 1180 1676 1183.5 1671.68 1183.5L1528.32 1183.5C1524 1183.5 1520.5 1180 1520.5 1175.68Z" stroke="#FFFFFF" stroke-width="22.9167" stroke-miterlimit="8" fill="#FFFFFF" fill-rule="evenodd"/></g></svg>