<svg width="572" height="436" viewBox="0 0 572 436" fill="none" xmlns="http://www.w3.org/2000/svg">
<path d="M412.653 324.288V414.025C412.653 423.05 405.337 430.366 396.312 430.366H175.688C166.664 430.366 159.348 423.05 159.348 414.025V324.288C159.348 294.999 169.019 265.817 185.428 255.605C215.666 236.787 245.682 228.767 245.682 228.767C246.738 225.476 247.927 214.589 248.549 203.44C244.719 199.462 240.923 195.31 236.922 191.378C229.303 183.889 228.443 173.185 225.723 159.376C220.725 160.798 219.144 158.42 217.819 156.394C216.912 155.012 216.557 153.352 216.218 151.735C214.999 145.916 213.784 140.098 212.568 134.279C211.655 129.909 210.735 125.432 211.356 121.008C211.652 118.916 212.396 116.724 214.112 115.495C215.829 114.266 218.699 114.562 219.559 116.492C219.559 116.492 216.776 89.1059 216.776 91.4106C214.448 88.8302 212.608 83.2041 213.378 78.8602C214.149 74.5163 215.531 70.2887 216.218 65.9312C216.972 61.149 216.892 56.2104 218.267 51.5675C220.203 45.0183 224.833 39.6515 229.545 34.713C232.883 31.2126 236.337 27.8152 240.103 24.7828C247.642 18.7219 256.632 14.1588 266.25 13.0826C269.335 12.7406 272.447 12.7538 275.552 12.7671C279.033 12.787 282.516 12.8037 286 12.8201C289.484 12.8034 292.968 12.787 296.448 12.7671C299.553 12.7538 302.665 12.7406 305.751 13.0826C315.368 14.1585 324.358 18.7219 331.897 24.7828C335.664 27.8149 339.117 31.2123 342.455 34.713C347.167 39.6515 351.797 45.0183 353.733 51.5675C355.108 56.2104 355.028 61.1486 355.783 65.9312C356.47 70.2883 357.852 74.516 358.622 78.8602C359.392 83.2041 357.553 88.8302 355.224 91.4106C355.224 89.1059 352.441 116.492 352.441 116.492C353.302 114.562 356.171 114.266 357.888 115.495C359.605 116.724 360.349 118.916 360.644 121.008C361.266 125.432 360.346 129.908 359.432 134.279C358.217 140.098 357.001 145.916 355.783 151.735C355.444 153.352 355.088 155.012 354.182 156.394C352.857 158.42 351.276 160.798 346.277 159.376C343.557 173.185 342.697 183.889 335.079 191.378C331.077 195.31 327.281 199.462 323.452 203.44C324.073 214.589 325.262 225.476 326.318 228.767C326.318 228.767 356.334 236.787 386.572 255.605C402.981 265.817 412.653 294.999 412.653 324.288Z" fill="white"/>
<path d="M412.653 324.288V414.025C412.653 423.05 405.337 430.366 396.312 430.366H175.688C166.664 430.366 159.348 423.05 159.348 414.025V324.288C159.348 294.999 169.019 265.817 185.428 255.605C215.666 236.787 245.682 228.767 245.682 228.767C246.738 225.476 247.927 214.589 248.549 203.44C244.719 199.462 240.923 195.31 236.922 191.378C229.303 183.889 228.443 173.185 225.723 159.376C220.725 160.798 219.144 158.42 217.819 156.394C216.912 155.012 216.557 153.352 216.218 151.735C214.999 145.916 213.784 140.098 212.568 134.279C211.655 129.909 210.735 125.432 211.356 121.008C211.652 118.916 212.396 116.724 214.112 115.495C215.829 114.266 218.699 114.562 219.559 116.492C219.559 116.492 216.776 89.1059 216.776 91.4106C214.448 88.8302 212.608 83.2041 213.378 78.8602C214.149 74.5163 215.531 70.2887 216.218 65.9312C216.972 61.149 216.892 56.2104 218.267 51.5675C220.203 45.0183 224.833 39.6515 229.545 34.713C232.883 31.2126 236.337 27.8152 240.103 24.7828C247.642 18.7219 256.632 14.1588 266.25 13.0826C269.335 12.7406 272.447 12.7538 275.552 12.7671C279.033 12.787 282.516 12.8037 286 12.8201C289.484 12.8034 292.968 12.787 296.448 12.7671C299.553 12.7538 302.665 12.7406 305.751 13.0826C315.368 14.1585 324.358 18.7219 331.897 24.7828C335.664 27.8149 339.117 31.2123 342.455 34.713C347.167 39.6515 351.797 45.0183 353.733 51.5675C355.108 56.2104 355.028 61.1486 355.783 65.9312C356.47 70.2883 357.852 74.516 358.622 78.8602C359.392 83.2041 357.553 88.8302 355.224 91.4106C355.224 89.1059 352.441 116.492 352.441 116.492C353.302 114.562 356.171 114.266 357.888 115.495C359.605 116.724 360.349 118.916 360.644 121.008C361.266 125.432 360.346 129.908 359.432 134.279C358.217 140.098 357.001 145.916 355.783 151.735C355.444 153.352 355.088 155.012 354.182 156.394C352.857 158.42 351.276 160.798 346.277 159.376C343.557 173.185 342.697 183.889 335.079 191.378C331.077 195.31 327.281 199.462 323.452 203.44C324.073 214.589 325.262 225.476 326.318 228.767C326.318 228.767 356.334 236.787 386.572 255.605C402.981 265.817 412.653 294.999 412.653 324.288Z" stroke="white" stroke-width="10"/>
<path d="M211.451 228.646C201.438 232.96 189.814 238.679 178.104 245.969C168.354 252.036 160.3 263.182 154.817 278.196C149.985 291.421 147.325 307.372 147.325 323.11V396.117H20.3036C11.8514 396.117 5 389.266 5 380.814V296.768C5 269.336 14.0566 242.006 29.4265 232.442C57.7454 214.817 85.8583 207.305 85.8583 207.305C86.848 204.223 87.9606 194.027 88.5417 183.585C84.9582 179.859 81.4013 175.97 77.6518 172.287C70.5181 165.273 69.7112 155.25 67.1639 142.315C62.4846 143.646 61.0032 141.421 59.7611 139.522C58.9141 138.23 58.5788 136.672 58.2633 135.158C57.1207 129.708 55.9816 124.261 54.8425 118.811C53.9889 114.717 53.1289 110.525 53.71 106.381C53.9857 104.421 54.683 102.369 56.2904 101.216C57.8979 100.067 60.5844 100.343 61.3916 102.15C61.3916 102.15 58.7847 76.5009 58.7847 78.6598C56.6059 76.2454 54.8823 70.9746 55.6033 66.9064C56.3239 62.8383 57.619 58.8793 58.2633 54.7979C58.9672 50.3179 58.8943 45.6913 60.1827 41.3443C61.9961 35.2101 66.3302 30.1853 70.7439 25.5591C73.8722 22.2814 77.107 19.0997 80.6339 16.2603C87.6944 10.5811 96.1134 6.31021 105.12 5.30058C108.009 4.98162 110.925 4.99172 113.835 5.00498C117.093 5.02488 120.357 5.03815 123.619 5.05489C126.883 5.03815 130.144 5.02488 133.406 5.00498C136.312 4.99172 139.228 4.98162 142.117 5.30058C151.124 6.31021 159.546 10.5811 166.607 16.2603C170.134 19.0997 173.368 22.2814 176.494 25.5591C180.907 30.1853 185.244 35.2101 187.058 41.3443C188.343 45.6917 188.27 50.3179 188.977 54.7979C189.618 58.8793 190.914 62.8383 191.634 66.9064C192.358 70.9746 190.635 76.2454 188.452 78.6598C188.452 76.5009 185.845 102.15 185.845 102.15C186.652 100.343 189.339 100.067 190.947 101.216C192.557 102.369 193.251 104.421 193.531 106.381C194.112 110.525 193.248 114.717 192.395 118.811C191.256 124.261 190.116 129.708 188.977 135.158C188.658 136.672 188.326 138.23 187.476 139.522C186.234 141.421 184.756 143.646 180.073 142.315C177.526 155.25 176.719 165.273 169.586 172.287C165.836 175.97 162.283 179.859 158.696 183.585C159.277 194.027 160.389 204.223 161.379 207.305C161.379 207.305 185.43 213.731 211.451 228.646Z" stroke="white" stroke-width="10"/>
<path d="M360.549 228.646C370.562 232.96 382.186 238.679 393.896 245.969C403.646 252.036 411.7 263.182 417.183 278.196C422.015 291.421 424.675 307.372 424.675 323.11V396.117H551.696C560.149 396.117 567 389.266 567 380.814V296.768C567 269.336 557.943 242.006 542.573 232.442C514.255 214.817 486.142 207.305 486.142 207.305C485.152 204.223 484.039 194.027 483.458 183.585C487.042 179.859 490.599 175.97 494.348 172.287C501.482 165.273 502.289 155.25 504.836 142.315C509.515 143.646 510.997 141.421 512.239 139.522C513.086 138.23 513.421 136.672 513.737 135.158C514.879 129.708 516.018 124.261 517.158 118.811C518.011 114.717 518.871 110.525 518.29 106.381C518.014 104.421 517.317 102.369 515.71 101.216C514.102 100.067 511.415 100.343 510.608 102.15C510.608 102.15 513.215 76.5009 513.215 78.6598C515.394 76.2454 517.118 70.9746 516.397 66.9064C515.676 62.8383 514.381 58.8793 513.737 54.7979C513.033 50.3179 513.106 45.6913 511.818 41.3443C510.004 35.2101 505.67 30.1853 501.256 25.5591C498.128 22.2814 494.893 19.0997 491.366 16.2603C484.306 10.5811 475.887 6.31021 466.88 5.30058C463.991 4.98162 461.075 4.99172 458.166 5.00498C454.908 5.02488 451.643 5.03815 448.382 5.05489C445.117 5.03815 441.856 5.02488 438.595 5.00498C435.688 4.99172 432.773 4.98162 429.883 5.30058C420.877 6.31021 412.454 10.5811 405.394 16.2603C401.867 19.0997 398.632 22.2814 395.507 25.5591C391.093 30.1853 386.756 35.2101 384.942 41.3443C383.657 45.6917 383.73 50.3179 383.023 54.7979C382.382 58.8793 381.087 62.8383 380.366 66.9064C379.642 70.9746 381.366 76.2454 383.548 78.6598C383.548 76.5009 386.155 102.15 386.155 102.15C385.348 100.343 382.661 100.067 381.053 101.216C379.443 102.369 378.749 104.421 378.469 106.381C377.888 110.525 378.752 114.717 379.605 118.811C380.744 124.261 381.884 129.708 383.023 135.158C383.342 136.672 383.674 138.23 384.524 139.522C385.766 141.421 387.244 143.646 391.927 142.315C394.474 155.25 395.281 165.273 402.414 172.287C406.164 175.97 409.717 179.859 413.304 183.585C412.723 194.027 411.611 204.223 410.621 207.305C410.621 207.305 386.57 213.731 360.549 228.646Z" stroke="white" stroke-width="10"/>
</svg>
