<svg width="354" height="411" viewBox="0 0 354 411" fill="none" xmlns="http://www.w3.org/2000/svg">
<mask id="mask0_541_99" style="mask-type:luminance" maskUnits="userSpaceOnUse" x="0" y="0" width="354" height="411">
<path d="M354 0H0V411H354V0Z" fill="white"/>
</mask>
<g mask="url(#mask0_541_99)">
<path fill-rule="evenodd" clip-rule="evenodd" d="M176.896 376.75C173.596 375.438 165.661 371.627 151.505 361.229C137.037 350.597 120.81 336.483 105.815 321.491C89.44 305.115 75.1416 288.352 64.4655 273.014C53.6564 257.485 46.6471 243.411 44.7287 233.389C36.7733 191.819 33.6698 126.528 32.523 90.9603C64.2124 87.7892 95.3284 79.1217 125.185 65.1324C147.218 54.809 164.633 43.4183 176.896 34.25C189.161 43.4183 206.575 54.809 228.609 65.1324C258.464 79.1217 289.58 87.7894 321.269 90.9603C320.122 126.528 317.018 191.819 309.064 233.389C307.146 243.411 300.135 257.485 289.327 273.014C278.649 288.352 264.353 305.115 247.977 321.491C232.981 336.483 216.755 350.597 202.289 361.229C188.133 371.627 180.198 375.438 176.896 376.75Z" stroke="#2D158F" stroke-width="45.8333" stroke-miterlimit="8"/>
<path fill-rule="evenodd" clip-rule="evenodd" d="M348.721 67.3936C346.955 65.4762 344.868 63.9489 342.575 62.8657C340.28 61.782 337.776 61.1402 335.176 60.9953C303.475 59.2139 272.259 51.2169 242.388 37.2206C218.129 25.8525 200.243 13.1138 189.511 4.42995C185.981 1.57425 181.539 0 177 0C172.461 0 168.019 1.57404 164.489 4.42995C153.757 13.1138 135.871 25.8525 111.61 37.2206C81.7417 51.2167 50.5244 59.2137 18.8245 60.9951C13.6217 61.287 8.81014 63.5588 5.27869 67.3933C1.74474 71.2325 -0.128878 76.2221 0.00684319 81.4409C0.821377 113.034 3.73218 191.813 13.1209 240.878C16.0651 256.263 25.0066 274.543 39.6936 295.206C52.2268 312.838 68.7033 331.778 87.3385 349.968C104.387 366.611 122.495 381.852 138.328 392.883C155.581 404.906 168.592 411 177 411C185.408 411 198.419 404.906 215.671 392.883C231.505 381.852 249.614 366.611 266.661 349.968C285.295 331.778 301.773 312.838 314.305 295.206C328.993 274.543 337.937 256.263 340.878 240.878C350.266 191.813 353.179 113.034 353.994 81.4409C354.129 76.2221 352.255 71.2327 348.721 67.3936ZM346.209 81.2406C345.396 112.64 342.511 190.908 333.229 239.41C330.5 253.688 321.998 270.936 307.963 290.678C295.694 307.937 279.533 326.511 261.224 344.38C226.879 377.909 190.67 403.198 177 403.198C163.33 403.198 127.121 377.909 92.7753 344.38C74.4673 326.511 58.307 307.937 46.0362 290.678C32.0032 270.936 23.5024 253.686 20.7717 239.41C11.4897 190.908 8.60354 112.64 7.7915 81.2406C7.62243 74.6257 12.6585 69.1547 19.2609 68.7846C51.9556 66.95 84.1363 58.7078 114.909 44.2878C139.879 32.5878 158.314 19.4563 169.382 10.5008C171.532 8.76194 174.238 7.80315 177 7.80315C179.764 7.80315 182.471 8.76174 184.618 10.5008C195.686 19.4563 214.122 32.5878 239.094 44.2878C269.863 58.7078 302.045 66.95 334.738 68.7846C341.341 69.1547 346.378 74.6257 346.209 81.2406Z" fill="#2D158F"/>
<path fill-rule="evenodd" clip-rule="evenodd" d="M253.959 142.916L273.668 162.659L158.856 277.669L139.148 257.925L139.164 257.909L95.9367 215.292L115.487 195.394L158.875 238.165L253.959 142.916Z" fill="#2D158F"/>
</g>
</svg>
