<svg width="205" height="204" viewBox="0 0 205 204" fill="none" xmlns="http://www.w3.org/2000/svg">
<g clip-path="url(#clip0_556_20)">
<path d="M128.159 34.091C152.155 37.007 168.1 43.9747 168.1 49.4273C168.1 52.5516 161.979 56.893 150.602 60.3056C138.028 64.0772 120.86 66.2553 102.5 66.2553C84.1403 66.2553 66.9719 64.0772 54.3981 60.3056C43.0216 56.893 36.9004 52.5518 36.9004 49.4273C36.9004 43.577 54.8095 36.2474 80.8785 33.6438C83.1315 33.4187 84.7747 31.4187 84.5485 29.1767C84.3223 26.9347 82.3125 25.2995 80.0595 25.5246C49.6546 28.5613 28.7002 37.1371 28.7002 49.4273C28.7002 64.5422 61.6143 74.4153 102.5 74.4153C143.385 74.4153 176.3 64.5422 176.3 49.4273C176.3 37.6947 157.362 29.4192 129.153 25.9912C126.906 25.7181 124.861 27.3098 124.586 29.5465C124.312 31.7831 125.911 33.8177 128.159 34.091H128.159ZM168.052 178.567C168.052 186.662 138.608 195.585 102.53 195.585C66.4524 195.585 37.0081 186.662 37.0081 178.567C37.0081 178.475 37.0137 178.377 37.0253 178.27C37.2692 176.03 35.642 174.017 33.3908 173.774C31.1396 173.531 29.117 175.151 28.873 177.391C28.83 177.782 28.8084 178.174 28.8081 178.567C28.8081 193.776 61.7034 203.745 102.53 203.745C143.357 203.745 176.252 193.776 176.252 178.567C176.252 176.313 174.417 174.487 172.152 174.487C169.888 174.487 168.052 176.314 168.052 178.567Z" fill="white"/>
<path d="M28.7675 50.4755V179.263C28.7675 181.516 30.603 183.343 32.8675 183.343C35.1319 183.343 36.9675 181.516 36.9675 179.263V50.4755C36.9675 48.2221 35.1319 46.3955 32.8675 46.3955C30.603 46.3955 28.7675 48.2221 28.7675 50.4755ZM168.087 50.4755V179.263C168.087 181.516 169.922 183.343 172.187 183.343C174.451 183.343 176.287 181.516 176.287 179.263V50.4755C176.287 48.2221 174.451 46.3955 172.187 46.3955C169.922 46.3955 168.087 48.2221 168.087 50.4755ZM136.96 49.5559C137.651 52.2099 135.447 54.3806 132.065 54.3806H78.4243C75.0418 54.3806 72.8401 52.2101 73.5309 49.5559C74.2198 46.9019 77.5531 44.7312 80.9356 44.7312H129.555C132.938 44.7312 136.269 46.9017 136.96 49.5559Z" fill="white"/>
<path d="M122.218 23.4428C120.965 15.8398 114.762 9.66678 107.122 8.42007C104.194 7.91837 101.189 8.12335 98.3578 9.01779C95.5267 9.91224 92.9528 11.47 90.8525 13.5601C88.7522 15.6502 87.1868 18.2115 86.288 21.0288C85.3892 23.8461 85.1832 26.8369 85.6874 29.7498C86.9402 37.3526 93.1435 43.5256 100.784 44.7723C103.711 45.2739 106.716 45.0689 109.547 44.1744C112.378 43.2799 114.952 41.7222 117.053 39.6321C119.153 37.5421 120.718 34.9808 121.617 32.1636C122.516 29.3464 122.722 26.3557 122.218 23.4428ZM130.31 22.1221C133.303 40.2859 117.71 55.8038 99.4567 52.8247C88.3434 51.0114 79.4177 42.1293 77.5955 31.0708C74.5992 12.9071 90.195 -2.61166 108.448 0.367652C119.562 2.18094 128.487 11.0629 130.31 22.1221ZM134.365 107.358C143.953 116.899 143.953 132.367 134.365 141.906L109.061 167.086C105.465 170.669 99.6278 170.669 96.0331 167.088L70.7282 141.906C61.1399 132.367 61.1399 116.899 70.7274 107.358C79.3981 98.7273 92.9433 97.9034 102.546 104.885C112.149 97.9034 125.695 98.7273 134.365 107.358ZM99.6472 113.128C93.2616 106.773 82.9101 106.773 76.5261 113.128C70.1405 119.482 70.1405 129.783 76.5261 136.136L101.833 161.319C102.022 161.507 102.279 161.613 102.547 161.613C102.815 161.613 103.072 161.506 103.261 161.318L128.567 136.136C134.952 129.783 134.952 119.482 128.566 113.127C122.182 106.773 111.831 106.773 105.445 113.128C103.844 114.721 101.248 114.721 99.6472 113.128Z" fill="white"/>
</g>
<defs>
<clipPath id="clip0_556_20">
<rect width="205" height="204" fill="white"/>
</clipPath>
</defs>
</svg>
