<svg width="206" height="208" viewBox="0 0 206 208" fill="none" xmlns="http://www.w3.org/2000/svg">
<path d="M200.506 161.457H198.196V50.8442C198.196 50.7836 198.196 50.7836 198.196 50.7231C198.196 50.6625 198.196 50.6019 198.196 50.5413C198.196 50.4808 198.196 50.4808 198.196 50.4202C198.196 50.3596 198.196 50.3596 198.196 50.299C198.196 50.2385 198.196 50.1779 198.196 50.1173C198.196 50.0567 198.196 49.9961 198.196 49.9961C198.196 49.9356 198.196 49.9356 198.196 49.875C198.196 49.8144 198.196 49.7538 198.135 49.6933C198.135 49.6327 198.135 49.5721 198.074 49.5721C198.074 49.5115 198.074 49.5115 198.013 49.451C198.013 49.3904 197.952 49.3298 197.952 49.2692C197.952 49.2087 197.892 49.1481 197.892 49.1481C197.892 49.0875 197.892 49.0875 197.831 49.0269C197.831 48.9663 197.77 48.9058 197.77 48.8452C197.77 48.7846 197.709 48.724 197.709 48.724L197.649 48.6635C197.588 48.6029 197.588 48.5423 197.527 48.4817C197.527 48.4212 197.466 48.4212 197.466 48.3606L197.405 48.3C197.345 48.2394 197.345 48.1788 197.284 48.1183C197.284 48.0577 197.223 48.0577 197.223 47.9971L197.162 47.9366C197.101 47.876 197.041 47.8154 197.041 47.7548C196.98 47.6942 196.98 47.6942 196.98 47.6337C162.873 13.6503 127.794 -2.28131 92.775 0.262901C65.7815 2.26192 44.0773 15.1647 30.7021 25.6444C16.2326 36.9722 8.14669 47.6942 7.78191 48.1789C7.78191 48.2394 7.72112 48.2394 7.72112 48.3C7.66032 48.3606 7.66032 48.4212 7.59953 48.4817L7.53873 48.5423L7.47793 48.6029C7.41714 48.6635 7.41714 48.724 7.35634 48.7846C7.35634 48.8452 7.29555 48.8452 7.29555 48.9058C7.29555 48.9058 7.29555 48.9663 7.23475 48.9663C7.23475 49.0269 7.17395 49.0875 7.17395 49.1481C7.17395 49.2087 7.11316 49.2692 7.11316 49.2692V49.3298C7.11316 49.3904 7.05236 49.451 7.05236 49.5115C7.05236 49.5721 6.99157 49.6327 6.99157 49.7538C6.99157 49.8144 6.99157 49.875 6.93077 49.9356C6.93077 49.9961 6.93077 50.1173 6.86997 50.1779C6.86997 50.2385 6.86997 50.299 6.86997 50.3596C6.86997 50.4202 6.86997 50.5413 6.86997 50.6019C6.86997 50.6625 6.86997 50.6625 6.86997 50.7231V161.457H4.55972C2.06707 161.457 0 163.516 0 166V186.354C0 188.837 2.06707 190.897 4.55972 190.897H56.6621V203.255C56.6621 205.738 58.7292 207.798 61.2218 207.798H143.905C146.397 207.798 148.464 205.738 148.464 203.255V190.897H200.567C203.059 190.897 205.126 188.837 205.126 186.354V166C205.066 163.516 203.059 161.457 200.506 161.457ZM182.571 147.161L189.076 140.073V154.248L182.571 147.161ZM170.229 69.6229L163.724 76.7104V62.4749L170.229 69.6229ZM189.076 115.54L182.571 108.452L189.076 101.365V115.54ZM187.982 89.0074L176.431 101.668L164.879 89.0074L176.431 76.3469L187.982 89.0074ZM182.571 69.6229L189.076 62.5355V76.7709L182.571 69.6229ZM163.785 101.304L170.29 108.392L163.785 115.479V101.304ZM163.785 140.073L170.29 147.161L163.785 154.248V140.073ZM164.879 127.776L176.431 115.116L187.982 127.776L176.431 140.437L164.879 127.776ZM176.431 62.8989L169.5 55.3269H183.361L176.431 62.8989ZM154.666 64.171H50.3393V55.3269H154.605V64.171H154.666ZM22.4338 69.6229L15.9286 76.7104V62.4749L22.4338 69.6229ZM41.2198 115.54L34.7146 108.452L41.2198 101.365V115.54ZM41.2198 76.7709L34.7146 69.6835L41.2198 62.596V76.7709ZM40.1255 89.0074L28.5742 101.668L17.0229 89.0074L28.5742 76.3469L40.1255 89.0074ZM22.4338 108.392L15.9286 115.479V101.244L22.4338 108.392ZM28.5742 115.176L40.1255 127.837L28.5742 140.497L17.0229 127.837L28.5742 115.176ZM41.2198 140.073V154.248L34.7146 147.161L41.2198 140.073ZM28.5742 62.8989L21.6435 55.3874H35.4442L28.5742 62.8989ZM22.4338 147.161L15.9286 154.248V140.073L22.4338 147.161ZM28.5742 153.945L35.505 161.517H21.6435L28.5742 153.945ZM50.3393 73.2575H68.1526V78.043H65.8423C63.3497 78.043 61.2826 80.1026 61.2826 82.5863C61.2826 85.0699 63.3497 87.1295 65.8423 87.1295H79.643C82.1357 87.1295 84.2028 85.0699 84.2028 82.5863C84.2028 80.1026 82.1357 78.043 79.643 78.043H77.3328V73.2575H97.9427V78.043H95.6324C93.1398 78.043 91.0727 80.1026 91.0727 82.5863C91.0727 85.0699 93.1398 87.1295 95.6324 87.1295H109.433C111.926 87.1295 113.993 85.0699 113.993 82.5863C113.993 80.1026 111.926 78.043 109.433 78.043H107.123V73.2575H127.733V78.043H125.423C122.93 78.043 120.863 80.1026 120.863 82.5863C120.863 85.0699 122.93 87.1295 125.423 87.1295H139.223C141.716 87.1295 143.783 85.0699 143.783 82.5863C143.783 80.1026 141.716 78.043 139.223 78.043H136.913V73.2575H154.726V161.457H50.3393V73.2575ZM176.431 153.945L183.361 161.457H169.561L176.431 153.945ZM93.4438 9.28879C122.93 7.16861 152.781 19.5868 182.267 46.301H159.225H45.7796H21.3395C32.7084 34.3674 58.6076 11.7724 93.4438 9.28879ZM139.284 198.772H65.7207V185.687H139.284V198.772ZM195.946 181.81H148.404V181.084C148.404 178.6 146.337 176.54 143.844 176.54H61.161C58.6684 176.54 56.6013 178.6 56.6013 181.084V181.81H9.05864V170.543H11.3689H45.8404H159.225H193.697H196.007V181.81H195.946Z" fill="white"/>
</svg>
