<svg width="143" height="201" viewBox="0 0 143 201" fill="none" xmlns="http://www.w3.org/2000/svg">
<path d="M71.448 41.8765C83.0561 41.8765 92.4621 32.5046 92.4621 20.9385C92.4621 9.37194 83.0561 0 71.448 0C59.8399 0 50.434 9.37194 50.434 20.9381C50.434 32.5046 59.8399 41.8765 71.448 41.8765Z" fill="white"/>
<path d="M126.085 92.1277H16.8114C7.53983 92.1277 -6.10352e-05 99.6403 -6.10352e-05 108.878C-6.10352e-05 118.116 7.53983 125.629 16.8114 125.629H17.2484L25.2422 197.28C25.4774 199.407 27.2765 201.007 29.4199 201.007H113.477C115.62 201.007 117.419 199.407 117.654 197.28L125.648 125.629H126.085C135.357 125.629 142.896 118.116 142.896 108.878C142.896 99.6403 135.357 92.1277 126.085 92.1277Z" fill="white"/>
<path d="M43.0793 83.752H99.8176C101.028 83.752 102.171 83.2326 102.97 82.3367C103.768 81.4321 104.138 80.2344 103.987 79.0452L102.675 68.5928C101.364 58.1322 92.4038 50.251 81.8292 50.251H61.0756C50.5014 50.251 41.5324 58.1322 40.2294 68.5928L38.9181 79.0452C38.7668 80.2344 39.1368 81.4321 39.935 82.3367C40.7258 83.233 41.8689 83.752 43.0793 83.752Z" fill="white"/>
</svg>
