<svg width="174" height="174" viewBox="0 0 174 174" fill="none" xmlns="http://www.w3.org/2000/svg">
<g clip-path="url(#clip0_556_12)">
<path fill-rule="evenodd" clip-rule="evenodd" d="M174 0V139.2C174 158.418 158.469 174 139.23 174C119.999 174 104.468 158.418 104.468 139.2C104.468 119.982 120.016 104.4 139.256 104.4C145.593 104.4 147.883 106.096 156.589 109.054V17.4H69.532V139.2C69.532 158.418 54.0011 174 34.7616 174C15.5308 174 0 158.418 0 139.2C0 119.982 15.5483 104.4 34.7878 104.4C41.1255 104.4 43.4151 106.096 52.1207 109.054V0H174Z" fill="white"/>
</g>
<defs>
<clipPath id="clip0_556_12">
<rect width="174" height="174" fill="white"/>
</clipPath>
</defs>
</svg>
