<svg width="224" height="224" viewBox="0 0 224 224" fill="none" xmlns="http://www.w3.org/2000/svg">
<g clip-path="url(#clip0_556_27)">
<path d="M190.728 125.792C204.951 125.792 216.484 114.267 216.484 100.044C216.484 85.8208 204.951 74.2878 190.728 74.2878C176.509 74.2878 164.976 85.8208 164.976 100.044C164.976 114.267 176.509 125.792 190.728 125.792Z" fill="white"/>
<path d="M223.706 150.61C222.558 143.714 216.858 134.063 212.543 129.751C211.975 129.18 209.435 129.047 208.749 129.473C203.503 132.699 197.341 134.598 190.728 134.598C184.122 134.598 177.96 132.699 172.714 129.473C172.025 129.047 169.488 129.18 168.92 129.751C167.714 130.957 166.398 132.563 165.115 134.425C168.586 140.961 171.339 147.904 172.333 153.883C173.326 159.877 173.004 165.551 171.398 170.724C177.102 172.788 183.942 173.693 190.728 173.693C208.427 173.693 226.539 167.557 223.706 150.61Z" fill="white"/>
<path d="M111.338 114.927C134.389 114.927 153.077 96.239 153.077 73.1889C153.077 50.1458 134.389 31.4575 111.338 31.4575C88.2914 31.4575 69.6102 50.1458 69.6102 73.1889C69.6102 96.239 88.291 114.927 111.338 114.927Z" fill="white"/>
<path d="M146.68 121.32C145.775 120.418 141.662 120.188 140.543 120.88C132.035 126.115 122.05 129.18 111.338 129.18C100.634 129.18 90.6443 126.115 82.1402 120.88C81.0224 120.187 76.9095 120.418 76.0038 121.32C68.9946 128.322 59.7568 143.975 57.8983 155.133C53.316 182.62 82.6757 192.543 111.338 192.543C140.008 192.543 169.368 182.62 164.785 155.133C162.927 143.975 153.689 128.322 146.68 121.32Z" fill="white"/>
<path d="M33.2714 125.792C47.4911 125.792 59.0236 114.267 59.0236 100.044C59.0236 85.8208 47.4911 74.2878 33.2714 74.2878C19.0479 74.2878 7.51538 85.8208 7.51538 100.044C7.51538 114.267 19.0479 125.792 33.2714 125.792Z" fill="white"/>
<path d="M50.3538 153.883C51.41 147.604 54.3898 140.21 58.1256 133.373C57.0843 131.951 56.0435 130.712 55.0828 129.751C54.5145 129.18 51.9778 129.047 51.2888 129.473C46.0427 132.699 39.8805 134.598 33.2716 134.598C26.6619 134.598 20.4958 132.699 15.2541 129.473C14.5681 129.047 12.0245 129.18 11.4561 129.751C7.13058 134.062 1.44527 143.714 0.293771 150.61C-2.53598 167.557 15.573 173.693 33.2716 173.693C39.5878 173.693 45.9661 172.916 51.41 171.138C49.6945 165.86 49.3314 160.053 50.3538 153.883Z" fill="white"/>
</g>
<defs>
<clipPath id="clip0_556_27">
<rect width="224" height="224" fill="white"/>
</clipPath>
</defs>
</svg>
