<svg width="1629" height="1300" viewBox="0 0 1629 1300" fill="none" xmlns="http://www.w3.org/2000/svg">
<path d="M1629 1279.52L1114.3 644.059L1587.97 39.1812H1181.01L1082.46 176.103C1061.33 156.123 1039.07 137.658 1015.57 120.804C965.916 83.6854 906.79 53.29 837.999 29.7123C716.336 -12.0459 605.474 -9.77332 505.415 36.4352C404.597 81.7916 334.574 161.331 295.536 275.053C265.309 362.831 265.783 440.571 296.957 508.179C327.941 574.557 395.88 643.301 500.866 714.413C577.901 766.303 625.278 807.115 642.902 836.752C658.536 866.958 659.578 901.615 646.218 940.722C633.9 976.514 609.738 1001.32 573.542 1014.96C537.346 1028.59 497.929 1028.12 455.195 1013.44C409.714 997.819 367.927 968.371 329.552 924.908C293.262 882.772 259.719 825.579 228.924 753.236L0 944.509C43.4918 1027.93 93.7111 1094.88 150.563 1145.25C207.415 1195.63 278.101 1235.4 362.716 1264.47C500.393 1311.72 624.046 1311.34 733.77 1263.52C843.305 1214.47 919.676 1126.98 962.979 1001.13C965.253 994.411 967.432 987.688 969.422 981.059L1193.23 1279.62H1629V1279.52ZM732.254 516.796C730.738 515.944 728.938 514.902 727.043 513.671C671.422 476.363 635.511 444.926 619.498 419.455C604.906 393.226 602.537 365.766 612.391 336.98C622.624 307.153 642.996 287.458 673.507 277.894C705.439 267.667 740.308 268.993 778.209 281.966C815.542 294.843 850.98 315.77 884.523 344.745C900.062 358.664 914.654 373.815 928.394 390.291L801.993 565.845C782.568 551.358 761.533 536.586 738.887 521.341C736.708 519.637 734.528 518.122 732.254 516.796Z" fill="url(#paint0_linear_312_2421)"/>
<defs>
<linearGradient id="paint0_linear_312_2421" x1="243.275" y1="53.7623" x2="1404.54" y2="1271.48" gradientUnits="userSpaceOnUse">
<stop stop-color="#2D158F"/>
<stop offset="1" stop-color="#FF7383"/>
</linearGradient>
</defs>
</svg>
