<svg id="Layer_3" data-name="Layer 3" xmlns="http://www.w3.org/2000/svg" viewBox="0 0 1719.25 1372.52"><defs><style>.cls-1{fill:#fff;}</style></defs><path class="cls-1" d="M384.8,1142q48.72,114.56,106.21,181.3,60.62,68.78,132.56,93.48,67.62,23.21,124.86,1.57t76.7-78.41q21.24-61.87-3.48-109.75-27.92-47-149.92-129.2Q505.61,988.35,456.54,883.21,407.19,776.07,455,637q61.88-180.24,221.59-252,158.26-73.26,351-7.09,108.79,37.37,187.28,96.14,83.3,60.08,147.8,144.24l-192.05,208.9q-39.78-68.28-94-116.67-53.14-46-112.23-66.34-60-20.6-110.55-4.33-48.32,15.12-64.52,62.39-15.65,45.56,7.5,87.11,25.41,40.45,113.53,99.54c2.09,1.36,3.93,2.46,5.55,3.35a60.3,60.3,0,0,1,7,4.79q190.17,127.74,233.19,220.31,28.68,58.83,30.58,134.4.46,71.25-27.26,152-68.46,199.37-241.89,277.14-173.73,75.78-391.64,1Q392,1635.86,302,1556T143.14,1344Z" transform="translate(-143.14 -346.48)"/><polygon class="cls-1" points="1719.25 1351.3 1175.96 680.23 1675.83 41.38 1246.34 41.38 822.92 630.18 822.92 768.79 1259.27 1351.3 1719.25 1351.3"/></svg>